<svg width="57" height="97" viewBox="0 0 57 97" fill="none" xmlns="http://www.w3.org/2000/svg">
<path d="M50.8721 41H26.1279L38.5 25.792L50.8721 41Z" fill="#ABABAB" stroke="#525252"/>
<path d="M48.2842 42H28.7158L38.5 29.7979L48.2842 42Z" fill="url(#paint0_linear_242_2232)" stroke="#525252"/>
<circle cx="38.5" cy="18.5" r="18" fill="url(#paint1_linear_242_2232)" stroke="#555555"/>
<circle cx="38.5" cy="18.5" r="15" fill="url(#paint2_linear_242_2232)" stroke="#555555"/>
<path d="M56.5 41.5V96.5H0.5V41.5H56.5ZM4.5 92.5H52.5V45.5H4.5V92.5Z" fill="url(#paint3_linear_242_2232)" stroke="#525252"/>
<path d="M52.5 53.5V92.5H4.5V53.5H52.5Z" fill="url(#paint4_linear_242_2232)" stroke="#525252"/>
<path d="M35.5 53.5V77.5H32.5V53.5H35.5Z" fill="url(#paint5_linear_242_2232)" stroke="#525252"/>
<path d="M36.5 77.5V84.5H31.5V77.5H36.5Z" fill="url(#paint6_linear_242_2232)" stroke="#525252"/>
<defs>
<linearGradient id="paint0_linear_242_2232" x1="28.9412" y1="30.5882" x2="41.0594" y2="49.4387" gradientUnits="userSpaceOnUse">
<stop stop-color="#05FF01"/>
<stop offset="1" stop-color="#01EBA5"/>
</linearGradient>
<linearGradient id="paint1_linear_242_2232" x1="22.4754" y1="2.775" x2="59.8561" y2="29.9769" gradientUnits="userSpaceOnUse">
<stop stop-color="#CDCDCD"/>
<stop offset="1" stop-color="#979797"/>
</linearGradient>
<linearGradient id="paint2_linear_242_2232" x1="26.6471" y1="5.73529" x2="49.4412" y2="31.2647" gradientUnits="userSpaceOnUse">
<stop stop-color="#05FF01"/>
<stop offset="1" stop-color="#01EBA5"/>
</linearGradient>
<linearGradient id="paint3_linear_242_2232" x1="-26.5" y1="50" x2="99.5" y2="158.5" gradientUnits="userSpaceOnUse">
<stop stop-color="#CDCDCD"/>
<stop offset="1" stop-color="#979797"/>
</linearGradient>
<linearGradient id="paint4_linear_242_2232" x1="28.5" y1="53" x2="28.5" y2="93" gradientUnits="userSpaceOnUse">
<stop stop-color="#FFB25B"/>
<stop offset="1" stop-color="#FB691F"/>
</linearGradient>
<linearGradient id="paint5_linear_242_2232" x1="34" y1="54" x2="34" y2="77" gradientUnits="userSpaceOnUse">
<stop stop-color="#808080"/>
<stop offset="1" stop-color="#585858"/>
</linearGradient>
<linearGradient id="paint6_linear_242_2232" x1="32.2676" y1="78.45" x2="37.2711" y2="80.8774" gradientUnits="userSpaceOnUse">
<stop stop-color="#CDCDCD"/>
<stop offset="1" stop-color="#979797"/>
</linearGradient>
</defs>
</svg>
