<svg width="78" height="36" viewBox="0 0 78 36" fill="none" xmlns="http://www.w3.org/2000/svg">
<g filter="url(#filter0_dddd_334_612)">
<mask id="path-1-outside-1_334_612" maskUnits="userSpaceOnUse" x="4" y="2" width="68" height="26" fill="black">
<rect fill="white" x="4" y="2" width="68" height="26"/>
<path d="M15.896 17.688C17.512 17.688 18.912 17.864 20.096 18.216C21.296 18.552 22.224 19.04 22.88 19.68C23.536 20.32 23.864 21.08 23.864 21.96C23.864 22.84 23.536 23.6 22.88 24.24C22.224 24.88 21.296 25.368 20.096 25.704C18.912 26.04 17.512 26.208 15.896 26.208C14.28 26.208 12.872 26.04 11.672 25.704C10.488 25.368 9.568 24.88 8.912 24.24C8.256 23.6 7.928 22.84 7.928 21.96C7.928 21.08 8.256 20.32 8.912 19.68C9.568 19.04 10.488 18.552 11.672 18.216C12.872 17.864 14.28 17.688 15.896 17.688ZM15.896 20.328C14.936 20.328 14.12 20.392 13.448 20.52C12.792 20.632 12.296 20.808 11.96 21.048C11.624 21.288 11.456 21.592 11.456 21.96C11.456 22.328 11.624 22.632 11.96 22.872C12.296 23.096 12.792 23.272 13.448 23.4C14.12 23.512 14.936 23.568 15.896 23.568C16.872 23.568 17.688 23.512 18.344 23.4C19 23.272 19.496 23.096 19.832 22.872C20.184 22.632 20.36 22.328 20.36 21.96C20.36 21.592 20.184 21.288 19.832 21.048C19.496 20.808 19 20.632 18.344 20.52C17.688 20.392 16.872 20.328 15.896 20.328ZM8.192 4.776H22.304V7.56H8.192V4.776ZM5.96 13.68H26.096V16.488H5.96V13.68ZM13.208 9.912H16.712V14.376H13.208V9.912ZM20.24 4.776H23.768V6.6C23.768 7.48 23.744 8.416 23.696 9.408C23.648 10.384 23.464 11.448 23.144 12.6L19.64 12.24C19.944 11.104 20.12 10.096 20.168 9.216C20.216 8.336 20.24 7.464 20.24 6.6V4.776ZM40.1581 9.12H44.2141V11.976H40.1581V9.12ZM43.2541 3.84H46.8061V17.112H43.2541V3.84ZM39.1501 17.544C40.7501 17.544 42.1261 17.72 43.2781 18.072C44.4301 18.408 45.3181 18.904 45.9421 19.56C46.5661 20.2 46.8781 20.976 46.8781 21.888C46.8781 23.28 46.1821 24.352 44.7901 25.104C43.4141 25.856 41.5341 26.232 39.1501 26.232C36.7661 26.232 34.8861 25.856 33.5101 25.104C32.1341 24.352 31.4461 23.28 31.4461 21.888C31.4461 20.976 31.7581 20.2 32.3821 19.56C33.0061 18.904 33.8941 18.408 35.0461 18.072C36.2141 17.72 37.5821 17.544 39.1501 17.544ZM39.1501 20.208C38.2221 20.208 37.4461 20.272 36.8221 20.4C36.2141 20.512 35.7501 20.688 35.4301 20.928C35.1261 21.168 34.9741 21.488 34.9741 21.888C34.9741 22.272 35.1261 22.592 35.4301 22.848C35.7501 23.088 36.2141 23.272 36.8221 23.4C37.4461 23.512 38.2221 23.568 39.1501 23.568C40.0941 23.568 40.8701 23.512 41.4781 23.4C42.1021 23.272 42.5661 23.088 42.8701 22.848C43.1901 22.592 43.3501 22.272 43.3501 21.888C43.3501 21.488 43.1901 21.168 42.8701 20.928C42.5661 20.688 42.1021 20.512 41.4781 20.4C40.8701 20.272 40.0941 20.208 39.1501 20.208ZM33.0061 6.072H35.8861V7.368C35.8861 8.792 35.6701 10.16 35.2381 11.472C34.8061 12.784 34.1261 13.944 33.1981 14.952C32.2701 15.944 31.0701 16.68 29.5981 17.16L27.8221 14.376C28.7661 14.072 29.5661 13.664 30.2221 13.152C30.8941 12.64 31.4301 12.072 31.8301 11.448C32.2461 10.808 32.5421 10.144 32.7181 9.456C32.9101 8.752 33.0061 8.056 33.0061 7.368V6.072ZM33.7741 6.072H36.6061V7.368C36.6061 8.216 36.7661 9.064 37.0861 9.912C37.4061 10.76 37.9341 11.528 38.6701 12.216C39.4061 12.888 40.3661 13.432 41.5501 13.848L39.8461 16.608C38.4061 16.144 37.2381 15.448 36.3421 14.52C35.4621 13.576 34.8141 12.488 34.3981 11.256C33.9821 10.008 33.7741 8.712 33.7741 7.368V6.072ZM28.7581 5.112H40.8061V7.896H28.7581V5.112ZM52.3723 13.68H68.2123V16.488H52.3723V13.68ZM50.0923 20.88H70.3243V23.76H50.0923V20.88ZM58.4203 14.952H61.9483V21.768H58.4203V14.952ZM52.3723 5.28H68.0443V8.112H55.9003V14.88H52.3723V5.28Z"/>
</mask>
<path d="M15.896 17.688C17.512 17.688 18.912 17.864 20.096 18.216C21.296 18.552 22.224 19.04 22.88 19.68C23.536 20.32 23.864 21.08 23.864 21.96C23.864 22.84 23.536 23.6 22.88 24.24C22.224 24.88 21.296 25.368 20.096 25.704C18.912 26.04 17.512 26.208 15.896 26.208C14.28 26.208 12.872 26.04 11.672 25.704C10.488 25.368 9.568 24.88 8.912 24.24C8.256 23.6 7.928 22.84 7.928 21.96C7.928 21.08 8.256 20.32 8.912 19.68C9.568 19.04 10.488 18.552 11.672 18.216C12.872 17.864 14.28 17.688 15.896 17.688ZM15.896 20.328C14.936 20.328 14.12 20.392 13.448 20.52C12.792 20.632 12.296 20.808 11.96 21.048C11.624 21.288 11.456 21.592 11.456 21.96C11.456 22.328 11.624 22.632 11.96 22.872C12.296 23.096 12.792 23.272 13.448 23.4C14.12 23.512 14.936 23.568 15.896 23.568C16.872 23.568 17.688 23.512 18.344 23.4C19 23.272 19.496 23.096 19.832 22.872C20.184 22.632 20.36 22.328 20.36 21.96C20.36 21.592 20.184 21.288 19.832 21.048C19.496 20.808 19 20.632 18.344 20.52C17.688 20.392 16.872 20.328 15.896 20.328ZM8.192 4.776H22.304V7.56H8.192V4.776ZM5.96 13.68H26.096V16.488H5.96V13.68ZM13.208 9.912H16.712V14.376H13.208V9.912ZM20.24 4.776H23.768V6.6C23.768 7.48 23.744 8.416 23.696 9.408C23.648 10.384 23.464 11.448 23.144 12.6L19.64 12.24C19.944 11.104 20.12 10.096 20.168 9.216C20.216 8.336 20.24 7.464 20.24 6.6V4.776ZM40.1581 9.12H44.2141V11.976H40.1581V9.12ZM43.2541 3.84H46.8061V17.112H43.2541V3.84ZM39.1501 17.544C40.7501 17.544 42.1261 17.72 43.2781 18.072C44.4301 18.408 45.3181 18.904 45.9421 19.56C46.5661 20.2 46.8781 20.976 46.8781 21.888C46.8781 23.28 46.1821 24.352 44.7901 25.104C43.4141 25.856 41.5341 26.232 39.1501 26.232C36.7661 26.232 34.8861 25.856 33.5101 25.104C32.1341 24.352 31.4461 23.28 31.4461 21.888C31.4461 20.976 31.7581 20.2 32.3821 19.56C33.0061 18.904 33.8941 18.408 35.0461 18.072C36.2141 17.72 37.5821 17.544 39.1501 17.544ZM39.1501 20.208C38.2221 20.208 37.4461 20.272 36.8221 20.4C36.2141 20.512 35.7501 20.688 35.4301 20.928C35.1261 21.168 34.9741 21.488 34.9741 21.888C34.9741 22.272 35.1261 22.592 35.4301 22.848C35.7501 23.088 36.2141 23.272 36.8221 23.4C37.4461 23.512 38.2221 23.568 39.1501 23.568C40.0941 23.568 40.8701 23.512 41.4781 23.4C42.1021 23.272 42.5661 23.088 42.8701 22.848C43.1901 22.592 43.3501 22.272 43.3501 21.888C43.3501 21.488 43.1901 21.168 42.8701 20.928C42.5661 20.688 42.1021 20.512 41.4781 20.4C40.8701 20.272 40.0941 20.208 39.1501 20.208ZM33.0061 6.072H35.8861V7.368C35.8861 8.792 35.6701 10.16 35.2381 11.472C34.8061 12.784 34.1261 13.944 33.1981 14.952C32.2701 15.944 31.0701 16.68 29.5981 17.16L27.8221 14.376C28.7661 14.072 29.5661 13.664 30.2221 13.152C30.8941 12.64 31.4301 12.072 31.8301 11.448C32.2461 10.808 32.5421 10.144 32.7181 9.456C32.9101 8.752 33.0061 8.056 33.0061 7.368V6.072ZM33.7741 6.072H36.6061V7.368C36.6061 8.216 36.7661 9.064 37.0861 9.912C37.4061 10.76 37.9341 11.528 38.6701 12.216C39.4061 12.888 40.3661 13.432 41.5501 13.848L39.8461 16.608C38.4061 16.144 37.2381 15.448 36.3421 14.52C35.4621 13.576 34.8141 12.488 34.3981 11.256C33.9821 10.008 33.7741 8.712 33.7741 7.368V6.072ZM28.7581 5.112H40.8061V7.896H28.7581V5.112ZM52.3723 13.68H68.2123V16.488H52.3723V13.68ZM50.0923 20.88H70.3243V23.76H50.0923V20.88ZM58.4203 14.952H61.9483V21.768H58.4203V14.952ZM52.3723 5.28H68.0443V8.112H55.9003V14.88H52.3723V5.28Z" fill="url(#paint0_linear_334_612)"/>
<path d="M20.096 18.216L19.64 19.7497L19.6523 19.7533L19.6646 19.7567L20.096 18.216ZM22.88 19.68L23.9973 18.5347V18.5347L22.88 19.68ZM22.88 24.24L23.9973 25.3853V25.3853L22.88 24.24ZM20.096 25.704L19.6646 24.1632L19.6592 24.1648L20.096 25.704ZM11.672 25.704L11.2352 27.2432L11.2406 27.2447L11.672 25.704ZM8.912 24.24L7.79468 25.3853L7.79468 25.3853L8.912 24.24ZM8.912 19.68L7.79468 18.5347L8.912 19.68ZM11.672 18.216L12.1088 19.7553L12.1224 19.7513L11.672 18.216ZM13.448 20.52L13.7173 22.0972L13.7324 22.0946L13.7474 22.0917L13.448 20.52ZM11.96 21.048L12.89 22.35H12.89L11.96 21.048ZM11.96 22.872L11.03 24.174L11.051 24.189L11.0725 24.2033L11.96 22.872ZM13.448 23.4L13.1416 24.9704L13.1632 24.9746L13.185 24.9782L13.448 23.4ZM18.344 23.4L18.6133 24.9772L18.6319 24.974L18.6504 24.9704L18.344 23.4ZM19.832 22.872L20.7195 24.2033L20.7265 24.1987L20.7333 24.194L19.832 22.872ZM19.832 21.048L18.902 22.35L18.9162 22.3601L18.9307 22.37L19.832 21.048ZM18.344 20.52L18.0376 22.0904L18.0561 22.094L18.0747 22.0972L18.344 20.52ZM8.192 4.776V3.176H6.592V4.776H8.192ZM22.304 4.776H23.904V3.176H22.304V4.776ZM22.304 7.56V9.16H23.904V7.56H22.304ZM8.192 7.56H6.592V9.16H8.192V7.56ZM5.96 13.68V12.08H4.36V13.68H5.96ZM26.096 13.68H27.696V12.08H26.096V13.68ZM26.096 16.488V18.088H27.696V16.488H26.096ZM5.96 16.488H4.36V18.088H5.96V16.488ZM13.208 9.912V8.312H11.608V9.912H13.208ZM16.712 9.912H18.312V8.312H16.712V9.912ZM16.712 14.376V15.976H18.312V14.376H16.712ZM13.208 14.376H11.608V15.976H13.208V14.376ZM20.24 4.776V3.176H18.64V4.776H20.24ZM23.768 4.776H25.368V3.176H23.768V4.776ZM23.696 9.408L25.2941 9.48659L25.2941 9.48533L23.696 9.408ZM23.144 12.6L22.9805 14.1916L24.3241 14.3297L24.6856 13.0282L23.144 12.6ZM19.64 12.24L18.0944 11.8264L17.6091 13.6398L19.4765 13.8316L19.64 12.24ZM20.168 9.216L18.5704 9.12885L20.168 9.216ZM15.896 17.688V19.288C17.4023 19.288 18.6415 19.4528 19.64 19.7497L20.096 18.216L20.552 16.6823C19.1825 16.2752 17.6217 16.088 15.896 16.088V17.688ZM20.096 18.216L19.6646 19.7567C20.6952 20.0453 21.3552 20.4277 21.7627 20.8253L22.88 19.68L23.9973 18.5347C23.0928 17.6523 21.8968 17.0587 20.5274 16.6753L20.096 18.216ZM22.88 19.68L21.7627 20.8253C22.1244 21.1781 22.264 21.5308 22.264 21.96H23.864H25.464C25.464 20.6292 24.9476 19.4619 23.9973 18.5347L22.88 19.68ZM23.864 21.96H22.264C22.264 22.3892 22.1244 22.7419 21.7627 23.0947L22.88 24.24L23.9973 25.3853C24.9476 24.4581 25.464 23.2908 25.464 21.96H23.864ZM22.88 24.24L21.7627 23.0947C21.3552 23.4923 20.6952 23.8747 19.6646 24.1633L20.096 25.704L20.5274 27.2447C21.8968 26.8613 23.0928 26.2677 23.9973 25.3853L22.88 24.24ZM20.096 25.704L19.6592 24.1648C18.6537 24.4501 17.4076 24.608 15.896 24.608V26.208V27.808C17.6164 27.808 19.1703 27.6299 20.5328 27.2432L20.096 25.704ZM15.896 26.208V24.608C14.3851 24.608 13.1286 24.4503 12.1034 24.1633L11.672 25.704L11.2406 27.2447C12.6154 27.6297 14.1749 27.808 15.896 27.808V26.208ZM11.672 25.704L12.1088 24.1648C11.0966 23.8775 10.4406 23.496 10.0293 23.0947L8.912 24.24L7.79468 25.3853C8.69535 26.264 9.87936 26.8585 11.2352 27.2432L11.672 25.704ZM8.912 24.24L10.0293 23.0947C9.66763 22.7419 9.528 22.3892 9.528 21.96H7.928H6.328C6.328 23.2908 6.84437 24.4581 7.79468 25.3853L8.912 24.24ZM7.928 21.96H9.528C9.528 21.5308 9.66763 21.1781 10.0293 20.8253L8.912 19.68L7.79468 18.5347C6.84437 19.4619 6.328 20.6292 6.328 21.96H7.928ZM8.912 19.68L10.0293 20.8253C10.4406 20.424 11.0966 20.0425 12.1088 19.7552L11.672 18.216L11.2352 16.6768C9.87936 17.0615 8.69535 17.656 7.79468 18.5347L8.912 19.68ZM11.672 18.216L12.1224 19.7513C13.1406 19.4526 14.3905 19.288 15.896 19.288V17.688V16.088C14.1695 16.088 12.6034 16.2754 11.2216 16.6807L11.672 18.216ZM15.896 20.328V18.728C14.8723 18.728 13.9498 18.7956 13.1486 18.9483L13.448 20.52L13.7474 22.0917C14.2902 21.9884 14.9997 21.928 15.896 21.928V20.328ZM13.448 20.52L13.1787 18.9428C12.4139 19.0734 11.6471 19.3053 11.03 19.746L11.96 21.048L12.89 22.35C12.9449 22.3107 13.1701 22.1906 13.7173 22.0972L13.448 20.52ZM11.96 21.048L11.03 19.746C10.333 20.2439 9.856 21.0063 9.856 21.96H11.456H13.056C13.056 22.03 13.0371 22.1308 12.9824 22.2299C12.9312 22.3226 12.8799 22.3572 12.89 22.35L11.96 21.048ZM11.456 21.96H9.856C9.856 22.9137 10.333 23.6761 11.03 24.174L11.96 22.872L12.89 21.57C12.8799 21.5628 12.9312 21.5974 12.9824 21.6901C13.0371 21.7892 13.056 21.89 13.056 21.96H11.456ZM11.96 22.872L11.0725 24.2033C11.6628 24.5968 12.3964 24.825 13.1416 24.9704L13.448 23.4L13.7544 21.8296C13.1876 21.719 12.9292 21.5952 12.8475 21.5407L11.96 22.872ZM13.448 23.4L13.185 24.9782C13.971 25.1092 14.8805 25.168 15.896 25.168V23.568V21.968C14.9915 21.968 14.269 21.9148 13.711 21.8218L13.448 23.4ZM15.896 23.568V25.168C16.9247 25.168 17.8377 25.1096 18.6133 24.9772L18.344 23.4L18.0747 21.8228C17.5383 21.9144 16.8193 21.968 15.896 21.968V23.568ZM18.344 23.4L18.6504 24.9704C19.3956 24.825 20.1292 24.5968 20.7195 24.2033L19.832 22.872L18.9445 21.5407C18.8628 21.5952 18.6044 21.719 18.0376 21.8296L18.344 23.4ZM19.832 22.872L20.7333 24.194C21.4427 23.7103 21.96 22.9468 21.96 21.96H20.36H18.76C18.76 21.8764 18.7834 21.7658 18.8433 21.6623C18.8983 21.5674 18.9501 21.5368 18.9307 21.55L19.832 22.872ZM20.36 21.96H21.96C21.96 20.9732 21.4427 20.2097 20.7333 19.726L19.832 21.048L18.9307 22.37C18.9501 22.3832 18.8983 22.3526 18.8433 22.2577C18.7834 22.1542 18.76 22.0436 18.76 21.96H20.36ZM19.832 21.048L20.762 19.746C20.1449 19.3053 19.3781 19.0734 18.6133 18.9428L18.344 20.52L18.0747 22.0972C18.6219 22.1906 18.8471 22.3107 18.902 22.35L19.832 21.048ZM18.344 20.52L18.6504 18.9496C17.859 18.7952 16.9325 18.728 15.896 18.728V20.328V21.928C16.8115 21.928 17.517 21.9888 18.0376 22.0904L18.344 20.52ZM8.192 4.776V6.376H22.304V4.776V3.176H8.192V4.776ZM22.304 4.776H20.704V7.56H22.304H23.904V4.776H22.304ZM22.304 7.56V5.96H8.192V7.56V9.16H22.304V7.56ZM8.192 7.56H9.792V4.776H8.192H6.592V7.56H8.192ZM5.96 13.68V15.28H26.096V13.68V12.08H5.96V13.68ZM26.096 13.68H24.496V16.488H26.096H27.696V13.68H26.096ZM26.096 16.488V14.888H5.96V16.488V18.088H26.096V16.488ZM5.96 16.488H7.56V13.68H5.96H4.36V16.488H5.96ZM13.208 9.912V11.512H16.712V9.912V8.312H13.208V9.912ZM16.712 9.912H15.112V14.376H16.712H18.312V9.912H16.712ZM16.712 14.376V12.776H13.208V14.376V15.976H16.712V14.376ZM13.208 14.376H14.808V9.912H13.208H11.608V14.376H13.208ZM20.24 4.776V6.376H23.768V4.776V3.176H20.24V4.776ZM23.768 4.776H22.168V6.6H23.768H25.368V4.776H23.768ZM23.768 6.6H22.168C22.168 7.45119 22.1448 8.36122 22.0979 9.33067L23.696 9.408L25.2941 9.48533C25.3432 8.47078 25.368 7.50881 25.368 6.6H23.768ZM23.696 9.408L22.0979 9.3294C22.0569 10.1643 21.8974 11.1096 21.6024 12.1718L23.144 12.6L24.6856 13.0282C25.0306 11.7864 25.2391 10.6037 25.2941 9.48659L23.696 9.408ZM23.144 12.6L23.3075 11.0084L19.8035 10.6484L19.64 12.24L19.4765 13.8316L22.9805 14.1916L23.144 12.6ZM19.64 12.24L21.1856 12.6536C21.5093 11.4439 21.71 10.323 21.7656 9.30314L20.168 9.216L18.5704 9.12885C18.53 9.86895 18.3787 10.7641 18.0944 11.8264L19.64 12.24ZM20.168 9.216L21.7656 9.30314C21.8152 8.3947 21.84 7.49364 21.84 6.6H20.24H18.64C18.64 7.43436 18.6168 8.2773 18.5704 9.12885L20.168 9.216ZM20.24 6.6H21.84V4.776H20.24H18.64V6.6H20.24ZM40.1581 9.12V7.52H38.5581V9.12H40.1581ZM44.2141 9.12H45.8141V7.52H44.2141V9.12ZM44.2141 11.976V13.576H45.8141V11.976H44.2141ZM40.1581 11.976H38.5581V13.576H40.1581V11.976ZM43.2541 3.84V2.24H41.6541V3.84H43.2541ZM46.8061 3.84H48.4061V2.24H46.8061V3.84ZM46.8061 17.112V18.712H48.4061V17.112H46.8061ZM43.2541 17.112H41.6541V18.712H43.2541V17.112ZM43.2781 18.072L42.8106 19.6022L42.8203 19.6051L42.8301 19.608L43.2781 18.072ZM45.9421 19.56L44.7828 20.6627L44.7896 20.6699L44.7965 20.677L45.9421 19.56ZM44.7901 25.104L44.0296 23.6963L44.0228 23.7L44.7901 25.104ZM33.5101 25.104L32.7428 26.508L33.5101 25.104ZM32.3821 19.56L33.5277 20.677L33.5346 20.6699L33.5414 20.6627L32.3821 19.56ZM35.0461 18.072L35.4941 19.608L35.501 19.606L35.5078 19.6039L35.0461 18.072ZM36.8221 20.4L37.112 21.9735L37.1278 21.9706L37.1436 21.9674L36.8221 20.4ZM35.4301 20.928L34.4701 19.648L34.4543 19.6599L34.4387 19.6722L35.4301 20.928ZM35.4301 22.848L34.3995 24.0719L34.434 24.1009L34.4701 24.128L35.4301 22.848ZM36.8221 23.4L36.4925 24.9657L36.5159 24.9706L36.5395 24.9748L36.8221 23.4ZM41.4781 23.4L41.768 24.9735L41.7838 24.9706L41.7996 24.9674L41.4781 23.4ZM42.8701 22.848L43.8616 24.1038L43.8696 24.0974L42.8701 22.848ZM42.8701 20.928L41.8787 22.1838L41.8943 22.1961L41.9101 22.208L42.8701 20.928ZM41.4781 20.4L41.1485 21.9657L41.1719 21.9706L41.1955 21.9748L41.4781 20.4ZM33.0061 6.072V4.472H31.4061V6.072H33.0061ZM35.8861 6.072H37.4861V4.472H35.8861V6.072ZM35.2381 11.472L33.7184 10.9716H33.7184L35.2381 11.472ZM33.1981 14.952L34.3666 16.0451L34.3752 16.0357L33.1981 14.952ZM29.5981 17.16L28.2492 18.0205L28.9158 19.0654L30.0942 18.6812L29.5981 17.16ZM27.8221 14.376L27.3317 12.853L25.3582 13.4886L26.4732 15.2365L27.8221 14.376ZM30.2221 13.152L29.2525 11.8793L29.245 11.885L29.2377 11.8907L30.2221 13.152ZM31.8301 11.448L30.4886 10.576L30.4831 10.5845L31.8301 11.448ZM32.7181 9.456L31.1745 9.03501L31.1712 9.04721L31.168 9.05947L32.7181 9.456ZM33.7741 6.072V4.472H32.1741V6.072H33.7741ZM36.6061 6.072H38.2061V4.472H36.6061V6.072ZM37.0861 9.912L38.5831 9.34711L37.0861 9.912ZM38.6701 12.216L37.5775 13.3848L37.5844 13.3913L37.5913 13.3976L38.6701 12.216ZM41.5501 13.848L42.9116 14.6885L43.9557 12.9973L42.0805 12.3385L41.5501 13.848ZM39.8461 16.608L39.3554 18.1309L40.5489 18.5154L41.2076 17.4485L39.8461 16.608ZM36.3421 14.52L35.1718 15.611L35.1813 15.6213L35.1911 15.6314L36.3421 14.52ZM34.3981 11.256L32.8802 11.762L32.8822 11.7679L34.3981 11.256ZM28.7581 5.112V3.512H27.1581V5.112H28.7581ZM40.8061 5.112H42.4061V3.512H40.8061V5.112ZM40.8061 7.896V9.496H42.4061V7.896H40.8061ZM28.7581 7.896H27.1581V9.496H28.7581V7.896ZM40.1581 9.12V10.72H44.2141V9.12V7.52H40.1581V9.12ZM44.2141 9.12H42.6141V11.976H44.2141H45.8141V9.12H44.2141ZM44.2141 11.976V10.376H40.1581V11.976V13.576H44.2141V11.976ZM40.1581 11.976H41.7581V9.12H40.1581H38.5581V11.976H40.1581ZM43.2541 3.84V5.44H46.8061V3.84V2.24H43.2541V3.84ZM46.8061 3.84H45.2061V17.112H46.8061H48.4061V3.84H46.8061ZM46.8061 17.112V15.512H43.2541V17.112V18.712H46.8061V17.112ZM43.2541 17.112H44.8541V3.84H43.2541H41.6541V17.112H43.2541ZM39.1501 17.544V19.144C40.6403 19.144 41.8505 19.3088 42.8106 19.6022L43.2781 18.072L43.7457 16.5418C42.4018 16.1312 40.86 15.944 39.1501 15.944V17.544ZM43.2781 18.072L42.8301 19.608C43.7965 19.8899 44.4069 20.2675 44.7828 20.6627L45.9421 19.56L47.1014 18.4573C46.2293 17.5405 45.0638 16.9261 43.7261 16.536L43.2781 18.072ZM45.9421 19.56L44.7965 20.677C45.1226 21.0114 45.2781 21.3839 45.2781 21.888H46.8781H48.4781C48.4781 20.5681 48.0096 19.3886 47.0877 18.443L45.9421 19.56ZM46.8781 21.888H45.2781C45.2781 22.6006 44.9904 23.1773 44.0296 23.6963L44.7901 25.104L45.5506 26.5117C47.3739 25.5267 48.4781 23.9594 48.4781 21.888H46.8781ZM44.7901 25.104L44.0228 23.7C42.9734 24.2735 41.3939 24.632 39.1501 24.632V26.232V27.832C41.6744 27.832 43.8549 27.4385 45.5574 26.508L44.7901 25.104ZM39.1501 26.232V24.632C36.9064 24.632 35.3269 24.2735 34.2774 23.7L33.5101 25.104L32.7428 26.508C34.4454 27.4385 36.6259 27.832 39.1501 27.832V26.232ZM33.5101 25.104L34.2774 23.7C33.3358 23.1854 33.0461 22.6101 33.0461 21.888H31.4461H29.8461C29.8461 23.9499 30.9325 25.5186 32.7428 26.508L33.5101 25.104ZM31.4461 21.888H33.0461C33.0461 21.3839 33.2016 21.0114 33.5277 20.677L32.3821 19.56L31.2365 18.443C30.3146 19.3886 29.8461 20.5681 29.8461 21.888H31.4461ZM32.3821 19.56L33.5414 20.6627C33.9173 20.2675 34.5278 19.8899 35.4941 19.608L35.0461 18.072L34.5981 16.536C33.2605 16.9261 32.0949 17.5405 31.2228 18.4573L32.3821 19.56ZM35.0461 18.072L35.5078 19.6039C36.4904 19.3078 37.6964 19.144 39.1501 19.144V17.544V15.944C37.4679 15.944 35.9378 16.1322 34.5844 16.5401L35.0461 18.072ZM39.1501 20.208V18.608C38.1584 18.608 37.2664 18.6756 36.5006 18.8326L36.8221 20.4L37.1436 21.9674C37.6259 21.8684 38.2859 21.808 39.1501 21.808V20.208ZM36.8221 20.4L36.5323 18.8265C35.8012 18.9612 35.0665 19.2007 34.4701 19.648L35.4301 20.928L36.3901 22.208C36.4337 22.1753 36.6271 22.0628 37.112 21.9735L36.8221 20.4ZM35.4301 20.928L34.4387 19.6722C33.736 20.227 33.3741 21.017 33.3741 21.888H34.9741H36.5741C36.5741 21.8947 36.5717 21.9538 36.5334 22.0345C36.4943 22.1168 36.4443 22.1659 36.4216 22.1838L35.4301 20.928ZM34.9741 21.888H33.3741C33.3741 22.7626 33.749 23.5241 34.3995 24.0719L35.4301 22.848L36.4607 21.6241C36.4603 21.6237 36.4702 21.6321 36.4851 21.6509C36.5003 21.6701 36.5177 21.6965 36.5334 21.7295C36.5676 21.8016 36.5741 21.8628 36.5741 21.888H34.9741ZM35.4301 22.848L34.4701 24.128C35.0516 24.5641 35.7697 24.8135 36.4925 24.9657L36.8221 23.4L37.1517 21.8343C36.6586 21.7305 36.4486 21.6119 36.3901 21.568L35.4301 22.848ZM36.8221 23.4L36.5395 24.9748C37.2888 25.1093 38.1666 25.168 39.1501 25.168V23.568V21.968C38.2776 21.968 37.6035 21.9147 37.1048 21.8252L36.8221 23.4ZM39.1501 23.568V25.168C40.1463 25.168 41.0284 25.1098 41.768 24.9735L41.4781 23.4L41.1883 21.8265C40.7118 21.9142 40.042 21.968 39.1501 21.968V23.568ZM41.4781 23.4L41.7996 24.9674C42.5291 24.8177 43.2743 24.5674 43.8616 24.1038L42.8701 22.848L41.8787 21.5922C41.8796 21.5915 41.8681 21.6006 41.8388 21.6168C41.8095 21.633 41.7658 21.6543 41.7043 21.6787C41.5792 21.7283 41.4007 21.7826 41.1566 21.8326L41.4781 23.4ZM42.8701 22.848L43.8696 24.0974C44.5398 23.5612 44.9501 22.7944 44.9501 21.888H43.3501H41.7501C41.7501 21.8502 41.7599 21.7787 41.799 21.7005C41.8366 21.6253 41.8761 21.5942 41.8706 21.5986L42.8701 22.848ZM43.3501 21.888H44.9501C44.9501 20.9844 44.553 20.1902 43.8301 19.648L42.8701 20.928L41.9101 22.208C41.8951 22.1967 41.8427 22.1508 41.799 22.0635C41.7554 21.9763 41.7501 21.9068 41.7501 21.888H43.3501ZM42.8701 20.928L43.8616 19.6722C43.2595 19.1969 42.4973 18.9574 41.7608 18.8252L41.4781 20.4L41.1955 21.9748C41.4356 22.0179 41.6082 22.0671 41.7267 22.112C41.8466 22.1575 41.8851 22.1889 41.8787 22.1838L42.8701 20.928ZM41.4781 20.4L41.8077 18.8343C41.051 18.675 40.1541 18.608 39.1501 18.608V20.208V21.808C40.0341 21.808 40.6893 21.869 41.1485 21.9657L41.4781 20.4ZM33.0061 6.072V7.672H35.8861V6.072V4.472H33.0061V6.072ZM35.8861 6.072H34.2861V7.368H35.8861H37.4861V6.072H35.8861ZM35.8861 7.368H34.2861C34.2861 8.62731 34.0956 9.82605 33.7184 10.9716L35.2381 11.472L36.7579 11.9724C37.2447 10.494 37.4861 8.95669 37.4861 7.368H35.8861ZM35.2381 11.472L33.7184 10.9716C33.3571 12.0688 32.7932 13.0295 32.021 13.8683L33.1981 14.952L34.3752 16.0357C35.459 14.8585 36.2551 13.4992 36.7579 11.9724L35.2381 11.472ZM33.1981 14.952L32.0297 13.8589C31.3106 14.6277 30.3538 15.2307 29.1021 15.6388L29.5981 17.16L30.0942 18.6812C31.7865 18.1293 33.2297 17.2603 34.3666 16.0451L33.1981 14.952ZM29.5981 17.16L30.947 16.2995L29.171 13.5155L27.8221 14.376L26.4732 15.2365L28.2492 18.0205L29.5981 17.16ZM27.8221 14.376L28.3126 15.899C29.4019 15.5482 30.3772 15.0606 31.2066 14.4133L30.2221 13.152L29.2377 11.8907C28.7551 12.2674 28.1303 12.5958 27.3317 12.853L27.8221 14.376ZM30.2221 13.152L31.1918 14.4247C31.992 13.815 32.6632 13.1132 33.1771 12.3115L31.8301 11.448L30.4831 10.5845C30.1971 11.0308 29.7963 11.465 29.2525 11.8793L30.2221 13.152ZM31.8301 11.448L33.1716 12.32C33.6755 11.5449 34.0459 10.7215 34.2682 9.85253L32.7181 9.456L31.168 9.05947C31.0383 9.56648 30.8168 10.0711 30.4886 10.576L31.8301 11.448ZM32.7181 9.456L34.2617 9.87699C34.4889 9.04409 34.6061 8.20657 34.6061 7.368H33.0061H31.4061C31.4061 7.90543 31.3313 8.45991 31.1745 9.03501L32.7181 9.456ZM33.0061 7.368H34.6061V6.072H33.0061H31.4061V7.368H33.0061ZM33.7741 6.072V7.672H36.6061V6.072V4.472H33.7741V6.072ZM36.6061 6.072H35.0061V7.368H36.6061H38.2061V6.072H36.6061ZM36.6061 7.368H35.0061C35.0061 8.42191 35.2058 9.46087 35.5892 10.4769L37.0861 9.912L38.5831 9.34711C38.3265 8.66713 38.2061 8.01009 38.2061 7.368H36.6061ZM37.0861 9.912L35.5892 10.4769C36.0051 11.5791 36.6824 12.5481 37.5775 13.3848L38.6701 12.216L39.7627 11.0472C39.1858 10.5079 38.8071 9.94085 38.5831 9.34711L37.0861 9.912ZM38.6701 12.216L37.5913 13.3976C38.5216 14.247 39.6835 14.888 41.0197 15.3575L41.5501 13.848L42.0805 12.3385C41.0487 11.976 40.2906 11.529 39.749 11.0344L38.6701 12.216ZM41.5501 13.848L40.1887 13.0075L38.4847 15.7675L39.8461 16.608L41.2076 17.4485L42.9116 14.6885L41.5501 13.848ZM39.8461 16.608L40.3368 15.0851C39.1041 14.6879 38.177 14.1169 37.4932 13.4086L36.3421 14.52L35.1911 15.6314C36.2992 16.7791 37.7082 17.6001 39.3554 18.1309L39.8461 16.608ZM36.3421 14.52L37.5125 13.429C36.7887 12.6526 36.2579 11.7624 35.914 10.7441L34.3981 11.256L32.8822 11.7679C33.3704 13.2136 34.1355 14.4994 35.1718 15.611L36.3421 14.52ZM34.3981 11.256L35.916 10.75C35.5556 9.66873 35.3741 8.54381 35.3741 7.368H33.7741H32.1741C32.1741 8.88019 32.4087 10.3473 32.8802 11.762L34.3981 11.256ZM33.7741 7.368H35.3741V6.072H33.7741H32.1741V7.368H33.7741ZM28.7581 5.112V6.712H40.8061V5.112V3.512H28.7581V5.112ZM40.8061 5.112H39.2061V7.896H40.8061H42.4061V5.112H40.8061ZM40.8061 7.896V6.296H28.7581V7.896V9.496H40.8061V7.896ZM28.7581 7.896H30.3581V5.112H28.7581H27.1581V7.896H28.7581ZM52.3722 13.68V12.08H50.7723V13.68H52.3722ZM68.2122 13.68H69.8122V12.08H68.2122V13.68ZM68.2122 16.488V18.088H69.8122V16.488H68.2122ZM52.3722 16.488H50.7723V18.088H52.3722V16.488ZM50.0923 20.88V19.28H48.4922V20.88H50.0923ZM70.3242 20.88H71.9242V19.28H70.3242V20.88ZM70.3242 23.76V25.36H71.9242V23.76H70.3242ZM50.0923 23.76H48.4922V25.36H50.0923V23.76ZM58.4202 14.952V13.352H56.8203V14.952H58.4202ZM61.9482 14.952H63.5483V13.352H61.9482V14.952ZM61.9482 21.768V23.368H63.5483V21.768H61.9482ZM58.4202 21.768H56.8203V23.368H58.4202V21.768ZM52.3722 5.28V3.68H50.7723V5.28H52.3722ZM68.0443 5.28H69.6442V3.68H68.0443V5.28ZM68.0443 8.112V9.712H69.6442V8.112H68.0443ZM55.9002 8.112V6.512H54.3003V8.112H55.9002ZM55.9002 14.88V16.48H57.5003V14.88H55.9002ZM52.3722 14.88H50.7723V16.48H52.3722V14.88ZM52.3722 13.68V15.28H68.2122V13.68V12.08H52.3722V13.68ZM68.2122 13.68H66.6123V16.488H68.2122H69.8122V13.68H68.2122ZM68.2122 16.488V14.888H52.3722V16.488V18.088H68.2122V16.488ZM52.3722 16.488H53.9723V13.68H52.3722H50.7723V16.488H52.3722ZM50.0923 20.88V22.48H70.3242V20.88V19.28H50.0923V20.88ZM70.3242 20.88H68.7243V23.76H70.3242H71.9242V20.88H70.3242ZM70.3242 23.76V22.16H50.0923V23.76V25.36H70.3242V23.76ZM50.0923 23.76H51.6922V20.88H50.0923H48.4922V23.76H50.0923ZM58.4202 14.952V16.552H61.9482V14.952V13.352H58.4202V14.952ZM61.9482 14.952H60.3483V21.768H61.9482H63.5483V14.952H61.9482ZM61.9482 21.768V20.168H58.4202V21.768V23.368H61.9482V21.768ZM58.4202 21.768H60.0202V14.952H58.4202H56.8203V21.768H58.4202ZM52.3722 5.28V6.88H68.0443V5.28V3.68H52.3722V5.28ZM68.0443 5.28H66.4443V8.112H68.0443H69.6442V5.28H68.0443ZM68.0443 8.112V6.512H55.9002V8.112V9.712H68.0443V8.112ZM55.9002 8.112H54.3003V14.88H55.9002H57.5003V8.112H55.9002ZM55.9002 14.88V13.28H52.3722V14.88V16.48H55.9002V14.88ZM52.3722 14.88H53.9723V5.28H52.3722H50.7723V14.88H52.3722Z" fill="white" mask="url(#path-1-outside-1_334_612)"/>
</g>
<defs>
<filter id="filter0_dddd_334_612" x="0.360001" y="0.23999" width="77.5643" height="35.592" filterUnits="userSpaceOnUse" color-interpolation-filters="sRGB">
<feFlood flood-opacity="0" result="BackgroundImageFix"/>
<feColorMatrix in="SourceAlpha" type="matrix" values="0 0 0 0 0 0 0 0 0 0 0 0 0 0 0 0 0 0 127 0" result="hardAlpha"/>
<feOffset dx="1" dy="1"/>
<feComposite in2="hardAlpha" operator="out"/>
<feColorMatrix type="matrix" values="0 0 0 0 0.87451 0 0 0 0 0.87451 0 0 0 0 0.87451 0 0 0 1 0"/>
<feBlend mode="normal" in2="BackgroundImageFix" result="effect1_dropShadow_334_612"/>
<feColorMatrix in="SourceAlpha" type="matrix" values="0 0 0 0 0 0 0 0 0 0 0 0 0 0 0 0 0 0 127 0" result="hardAlpha"/>
<feOffset dx="1" dy="1"/>
<feComposite in2="hardAlpha" operator="out"/>
<feColorMatrix type="matrix" values="0 0 0 0 0.875 0 0 0 0 0.875 0 0 0 0 0.875 0 0 0 1 0"/>
<feBlend mode="normal" in2="effect1_dropShadow_334_612" result="effect2_dropShadow_334_612"/>
<feColorMatrix in="SourceAlpha" type="matrix" values="0 0 0 0 0 0 0 0 0 0 0 0 0 0 0 0 0 0 127 0" result="hardAlpha"/>
<feOffset dx="2" dy="2"/>
<feGaussianBlur stdDeviation="2"/>
<feComposite in2="hardAlpha" operator="out"/>
<feColorMatrix type="matrix" values="0 0 0 0 0 0 0 0 0 0 0 0 0 0 0 0 0 0 0.1 0"/>
<feBlend mode="normal" in2="effect2_dropShadow_334_612" result="effect3_dropShadow_334_612"/>
<feColorMatrix in="SourceAlpha" type="matrix" values="0 0 0 0 0 0 0 0 0 0 0 0 0 0 0 0 0 0 127 0" result="hardAlpha"/>
<feOffset dy="4"/>
<feGaussianBlur stdDeviation="2"/>
<feComposite in2="hardAlpha" operator="out"/>
<feColorMatrix type="matrix" values="0 0 0 0 0 0 0 0 0 0 0 0 0 0 0 0 0 0 0.25 0"/>
<feBlend mode="normal" in2="effect3_dropShadow_334_612" result="effect4_dropShadow_334_612"/>
<feBlend mode="normal" in="SourceGraphic" in2="effect4_dropShadow_334_612" result="shape"/>
</filter>
<linearGradient id="paint0_linear_334_612" x1="38.5" y1="-4" x2="38.5" y2="31" gradientUnits="userSpaceOnUse">
<stop stop-color="#52536D"/>
<stop offset="1" stop-color="#27274C"/>
</linearGradient>
</defs>
</svg>
