<svg width="188" height="34" viewBox="0 0 188 34" fill="none" xmlns="http://www.w3.org/2000/svg">
<g filter="url(#filter0_ddd_334_1663)">
<mask id="path-1-outside-1_334_1663" maskUnits="userSpaceOnUse" x="2" y="2" width="180" height="26" fill="black">
<rect fill="white" x="2" y="2" width="180" height="26"/>
<path d="M4.136 24V6.168H10.496C11.76 6.168 12.904 6.336 13.928 6.672C14.968 7.008 15.792 7.576 16.4 8.376C17.008 9.176 17.312 10.28 17.312 11.688C17.312 13.032 17.008 14.136 16.4 15C15.792 15.864 14.968 16.496 13.928 16.896C12.904 17.296 11.76 17.496 10.496 17.496H8.048V24H4.136ZM8.048 14.4H10.16C11.248 14.4 12.072 14.168 12.632 13.704C13.208 13.24 13.496 12.568 13.496 11.688C13.496 10.776 13.208 10.152 12.632 9.816C12.072 9.464 11.248 9.288 10.16 9.288H8.048V14.4ZM13.784 24L9.776 16.488L12.464 13.968L18.152 24H13.784ZM28.0235 24.336C26.4395 24.336 25.0395 23.968 23.8235 23.232C22.6075 22.48 21.6555 21.408 20.9675 20.016C20.2955 18.608 19.9595 16.936 19.9595 15C19.9595 13.064 20.2955 11.416 20.9675 10.056C21.6555 8.68 22.6075 7.64 23.8235 6.936C25.0395 6.216 26.4395 5.856 28.0235 5.856C29.6235 5.856 31.0235 6.216 32.2235 6.936C33.4395 7.656 34.3835 8.696 35.0555 10.056C35.7435 11.416 36.0875 13.064 36.0875 15C36.0875 16.936 35.7435 18.608 35.0555 20.016C34.3835 21.408 33.4395 22.48 32.2235 23.232C31.0235 23.968 29.6235 24.336 28.0235 24.336ZM28.0235 20.952C28.8555 20.952 29.5755 20.712 30.1835 20.232C30.7915 19.736 31.2635 19.048 31.5995 18.168C31.9355 17.272 32.1035 16.216 32.1035 15C32.1035 13.8 31.9355 12.768 31.5995 11.904C31.2635 11.024 30.7915 10.36 30.1835 9.912C29.5755 9.448 28.8555 9.216 28.0235 9.216C27.1915 9.216 26.4715 9.448 25.8635 9.912C25.2555 10.36 24.7835 11.024 24.4475 11.904C24.1275 12.768 23.9675 13.8 23.9675 15C23.9675 16.216 24.1275 17.272 24.4475 18.168C24.7835 19.048 25.2555 19.736 25.8635 20.232C26.4715 20.712 27.1915 20.952 28.0235 20.952ZM49.0681 5.496H51.9481V8.544C51.9481 10.016 51.8281 11.44 51.5881 12.816C51.3641 14.176 50.9881 15.448 50.4601 16.632C49.9481 17.816 49.2841 18.856 48.4681 19.752C47.6681 20.632 46.6841 21.336 45.5161 21.864L43.4281 18.96C44.4361 18.528 45.2921 17.952 45.9961 17.232C46.7161 16.496 47.3001 15.664 47.7481 14.736C48.2121 13.808 48.5481 12.816 48.7561 11.76C48.9641 10.704 49.0681 9.632 49.0681 8.544V5.496ZM49.7881 5.496H52.6441V8.544C52.6441 9.584 52.7401 10.608 52.9321 11.616C53.1241 12.608 53.4361 13.552 53.8681 14.448C54.3161 15.328 54.8841 16.112 55.5721 16.8C56.2761 17.488 57.1241 18.04 58.1161 18.456L56.0521 21.312C54.9321 20.816 53.9721 20.136 53.1721 19.272C52.3721 18.408 51.7241 17.416 51.2281 16.296C50.7321 15.176 50.3641 13.96 50.1241 12.648C49.9001 11.32 49.7881 9.952 49.7881 8.544V5.496ZM58.8361 3.792H62.3881V26.256H58.8361V3.792ZM73.9543 5.04H77.0262V6.624C77.0262 7.6 76.8983 8.552 76.6423 9.48C76.4023 10.392 76.0263 11.256 75.5143 12.072C75.0183 12.888 74.3943 13.632 73.6423 14.304C72.9063 14.976 72.0423 15.552 71.0503 16.032C70.0583 16.512 68.9463 16.864 67.7143 17.088L66.2023 14.16C67.2743 13.968 68.2263 13.688 69.0583 13.32C69.9063 12.952 70.6343 12.512 71.2422 12C71.8663 11.488 72.3783 10.936 72.7783 10.344C73.1783 9.752 73.4743 9.136 73.6663 8.496C73.8583 7.856 73.9543 7.232 73.9543 6.624V5.04ZM74.6743 5.04H77.7223V6.624C77.7223 7.248 77.8183 7.88 78.0103 8.52C78.2023 9.16 78.4983 9.784 78.8983 10.392C79.2983 10.984 79.8023 11.528 80.4103 12.024C81.0183 12.52 81.7383 12.96 82.5703 13.344C83.4183 13.712 84.3863 13.984 85.4743 14.16L83.9623 17.088C82.7303 16.864 81.6183 16.512 80.6263 16.032C79.6503 15.552 78.7863 14.984 78.0343 14.328C77.2983 13.656 76.6743 12.912 76.1623 12.096C75.6663 11.28 75.2903 10.416 75.0343 9.504C74.7943 8.576 74.6743 7.616 74.6743 6.624V5.04ZM65.8423 20.688H86.0743V23.544H65.8423V20.688ZM97.3044 9.144H100.592V11.952H97.3044V9.144ZM88.7124 13.656H90.2724C91.3284 13.656 92.2724 13.648 93.1044 13.632C93.9364 13.616 94.7364 13.576 95.5044 13.512C96.2724 13.432 97.0564 13.336 97.8564 13.224L98.1684 15.936C97.3364 16.096 96.5204 16.208 95.7204 16.272C94.9204 16.336 94.0804 16.376 93.2004 16.392C92.3364 16.408 91.3604 16.416 90.2724 16.416H88.7124V13.656ZM88.7124 5.112H97.1364V7.896H92.1204V15.264H88.7124V5.112ZM91.1124 9.408H96.3444V12.048H91.1124V9.408ZM103.664 3.84H107.024V17.136H103.664V3.84ZM99.2724 4.152H102.56V16.968H99.2724V4.152ZM91.7364 17.976H107.024V25.968H91.7364V17.976ZM103.568 20.736H95.2164V23.208H103.568V20.736ZM125.419 17.688C127.035 17.688 128.435 17.864 129.619 18.216C130.819 18.552 131.747 19.04 132.403 19.68C133.059 20.32 133.387 21.08 133.387 21.96C133.387 22.84 133.059 23.6 132.403 24.24C131.747 24.88 130.819 25.368 129.619 25.704C128.435 26.04 127.035 26.208 125.419 26.208C123.803 26.208 122.395 26.04 121.195 25.704C120.011 25.368 119.091 24.88 118.435 24.24C117.779 23.6 117.451 22.84 117.451 21.96C117.451 21.08 117.779 20.32 118.435 19.68C119.091 19.04 120.011 18.552 121.195 18.216C122.395 17.864 123.803 17.688 125.419 17.688ZM125.419 20.328C124.459 20.328 123.643 20.392 122.971 20.52C122.315 20.632 121.819 20.808 121.483 21.048C121.147 21.288 120.979 21.592 120.979 21.96C120.979 22.328 121.147 22.632 121.483 22.872C121.819 23.096 122.315 23.272 122.971 23.4C123.643 23.512 124.459 23.568 125.419 23.568C126.395 23.568 127.211 23.512 127.867 23.4C128.523 23.272 129.019 23.096 129.355 22.872C129.707 22.632 129.883 22.328 129.883 21.96C129.883 21.592 129.707 21.288 129.355 21.048C129.019 20.808 128.523 20.632 127.867 20.52C127.211 20.392 126.395 20.328 125.419 20.328ZM117.715 4.776H131.827V7.56H117.715V4.776ZM115.483 13.68H135.619V16.488H115.483V13.68ZM122.731 9.912H126.235V14.376H122.731V9.912ZM129.763 4.776H133.291V6.6C133.291 7.48 133.267 8.416 133.219 9.408C133.171 10.384 132.987 11.448 132.667 12.6L129.163 12.24C129.467 11.104 129.643 10.096 129.691 9.216C129.739 8.336 129.763 7.464 129.763 6.6V4.776ZM149.682 9.12H153.738V11.976H149.682V9.12ZM152.778 3.84H156.33V17.112H152.778V3.84ZM148.674 17.544C150.274 17.544 151.65 17.72 152.802 18.072C153.954 18.408 154.842 18.904 155.466 19.56C156.09 20.2 156.402 20.976 156.402 21.888C156.402 23.28 155.706 24.352 154.314 25.104C152.938 25.856 151.058 26.232 148.674 26.232C146.29 26.232 144.41 25.856 143.034 25.104C141.658 24.352 140.97 23.28 140.97 21.888C140.97 20.976 141.282 20.2 141.906 19.56C142.53 18.904 143.418 18.408 144.57 18.072C145.738 17.72 147.106 17.544 148.674 17.544ZM148.674 20.208C147.746 20.208 146.97 20.272 146.346 20.4C145.738 20.512 145.274 20.688 144.954 20.928C144.65 21.168 144.498 21.488 144.498 21.888C144.498 22.272 144.65 22.592 144.954 22.848C145.274 23.088 145.738 23.272 146.346 23.4C146.97 23.512 147.746 23.568 148.674 23.568C149.618 23.568 150.394 23.512 151.002 23.4C151.626 23.272 152.09 23.088 152.394 22.848C152.714 22.592 152.874 22.272 152.874 21.888C152.874 21.488 152.714 21.168 152.394 20.928C152.09 20.688 151.626 20.512 151.002 20.4C150.394 20.272 149.618 20.208 148.674 20.208ZM142.53 6.072H145.41V7.368C145.41 8.792 145.194 10.16 144.762 11.472C144.33 12.784 143.65 13.944 142.722 14.952C141.794 15.944 140.594 16.68 139.122 17.16L137.346 14.376C138.29 14.072 139.09 13.664 139.746 13.152C140.418 12.64 140.954 12.072 141.354 11.448C141.77 10.808 142.066 10.144 142.242 9.456C142.434 8.752 142.53 8.056 142.53 7.368V6.072ZM143.298 6.072H146.13V7.368C146.13 8.216 146.29 9.064 146.61 9.912C146.93 10.76 147.458 11.528 148.194 12.216C148.93 12.888 149.89 13.432 151.074 13.848L149.37 16.608C147.93 16.144 146.762 15.448 145.866 14.52C144.986 13.576 144.338 12.488 143.922 11.256C143.506 10.008 143.298 8.712 143.298 7.368V6.072ZM138.282 5.112H150.33V7.896H138.282V5.112ZM161.896 13.68H177.736V16.488H161.896V13.68ZM159.616 20.88H179.848V23.76H159.616V20.88ZM167.944 14.952H171.472V21.768H167.944V14.952ZM161.896 5.28H177.568V8.112H165.424V14.88H161.896V5.28Z"/>
</mask>
<path d="M4.136 24V6.168H10.496C11.76 6.168 12.904 6.336 13.928 6.672C14.968 7.008 15.792 7.576 16.4 8.376C17.008 9.176 17.312 10.28 17.312 11.688C17.312 13.032 17.008 14.136 16.4 15C15.792 15.864 14.968 16.496 13.928 16.896C12.904 17.296 11.76 17.496 10.496 17.496H8.048V24H4.136ZM8.048 14.4H10.16C11.248 14.4 12.072 14.168 12.632 13.704C13.208 13.24 13.496 12.568 13.496 11.688C13.496 10.776 13.208 10.152 12.632 9.816C12.072 9.464 11.248 9.288 10.16 9.288H8.048V14.4ZM13.784 24L9.776 16.488L12.464 13.968L18.152 24H13.784ZM28.0235 24.336C26.4395 24.336 25.0395 23.968 23.8235 23.232C22.6075 22.48 21.6555 21.408 20.9675 20.016C20.2955 18.608 19.9595 16.936 19.9595 15C19.9595 13.064 20.2955 11.416 20.9675 10.056C21.6555 8.68 22.6075 7.64 23.8235 6.936C25.0395 6.216 26.4395 5.856 28.0235 5.856C29.6235 5.856 31.0235 6.216 32.2235 6.936C33.4395 7.656 34.3835 8.696 35.0555 10.056C35.7435 11.416 36.0875 13.064 36.0875 15C36.0875 16.936 35.7435 18.608 35.0555 20.016C34.3835 21.408 33.4395 22.48 32.2235 23.232C31.0235 23.968 29.6235 24.336 28.0235 24.336ZM28.0235 20.952C28.8555 20.952 29.5755 20.712 30.1835 20.232C30.7915 19.736 31.2635 19.048 31.5995 18.168C31.9355 17.272 32.1035 16.216 32.1035 15C32.1035 13.8 31.9355 12.768 31.5995 11.904C31.2635 11.024 30.7915 10.36 30.1835 9.912C29.5755 9.448 28.8555 9.216 28.0235 9.216C27.1915 9.216 26.4715 9.448 25.8635 9.912C25.2555 10.36 24.7835 11.024 24.4475 11.904C24.1275 12.768 23.9675 13.8 23.9675 15C23.9675 16.216 24.1275 17.272 24.4475 18.168C24.7835 19.048 25.2555 19.736 25.8635 20.232C26.4715 20.712 27.1915 20.952 28.0235 20.952ZM49.0681 5.496H51.9481V8.544C51.9481 10.016 51.8281 11.44 51.5881 12.816C51.3641 14.176 50.9881 15.448 50.4601 16.632C49.9481 17.816 49.2841 18.856 48.4681 19.752C47.6681 20.632 46.6841 21.336 45.5161 21.864L43.4281 18.96C44.4361 18.528 45.2921 17.952 45.9961 17.232C46.7161 16.496 47.3001 15.664 47.7481 14.736C48.2121 13.808 48.5481 12.816 48.7561 11.76C48.9641 10.704 49.0681 9.632 49.0681 8.544V5.496ZM49.7881 5.496H52.6441V8.544C52.6441 9.584 52.7401 10.608 52.9321 11.616C53.1241 12.608 53.4361 13.552 53.8681 14.448C54.3161 15.328 54.8841 16.112 55.5721 16.8C56.2761 17.488 57.1241 18.04 58.1161 18.456L56.0521 21.312C54.9321 20.816 53.9721 20.136 53.1721 19.272C52.3721 18.408 51.7241 17.416 51.2281 16.296C50.7321 15.176 50.3641 13.96 50.1241 12.648C49.9001 11.32 49.7881 9.952 49.7881 8.544V5.496ZM58.8361 3.792H62.3881V26.256H58.8361V3.792ZM73.9543 5.04H77.0262V6.624C77.0262 7.6 76.8983 8.552 76.6423 9.48C76.4023 10.392 76.0263 11.256 75.5143 12.072C75.0183 12.888 74.3943 13.632 73.6423 14.304C72.9063 14.976 72.0423 15.552 71.0503 16.032C70.0583 16.512 68.9463 16.864 67.7143 17.088L66.2023 14.16C67.2743 13.968 68.2263 13.688 69.0583 13.32C69.9063 12.952 70.6343 12.512 71.2422 12C71.8663 11.488 72.3783 10.936 72.7783 10.344C73.1783 9.752 73.4743 9.136 73.6663 8.496C73.8583 7.856 73.9543 7.232 73.9543 6.624V5.04ZM74.6743 5.04H77.7223V6.624C77.7223 7.248 77.8183 7.88 78.0103 8.52C78.2023 9.16 78.4983 9.784 78.8983 10.392C79.2983 10.984 79.8023 11.528 80.4103 12.024C81.0183 12.52 81.7383 12.96 82.5703 13.344C83.4183 13.712 84.3863 13.984 85.4743 14.16L83.9623 17.088C82.7303 16.864 81.6183 16.512 80.6263 16.032C79.6503 15.552 78.7863 14.984 78.0343 14.328C77.2983 13.656 76.6743 12.912 76.1623 12.096C75.6663 11.28 75.2903 10.416 75.0343 9.504C74.7943 8.576 74.6743 7.616 74.6743 6.624V5.04ZM65.8423 20.688H86.0743V23.544H65.8423V20.688ZM97.3044 9.144H100.592V11.952H97.3044V9.144ZM88.7124 13.656H90.2724C91.3284 13.656 92.2724 13.648 93.1044 13.632C93.9364 13.616 94.7364 13.576 95.5044 13.512C96.2724 13.432 97.0564 13.336 97.8564 13.224L98.1684 15.936C97.3364 16.096 96.5204 16.208 95.7204 16.272C94.9204 16.336 94.0804 16.376 93.2004 16.392C92.3364 16.408 91.3604 16.416 90.2724 16.416H88.7124V13.656ZM88.7124 5.112H97.1364V7.896H92.1204V15.264H88.7124V5.112ZM91.1124 9.408H96.3444V12.048H91.1124V9.408ZM103.664 3.84H107.024V17.136H103.664V3.84ZM99.2724 4.152H102.56V16.968H99.2724V4.152ZM91.7364 17.976H107.024V25.968H91.7364V17.976ZM103.568 20.736H95.2164V23.208H103.568V20.736ZM125.419 17.688C127.035 17.688 128.435 17.864 129.619 18.216C130.819 18.552 131.747 19.04 132.403 19.68C133.059 20.32 133.387 21.08 133.387 21.96C133.387 22.84 133.059 23.6 132.403 24.24C131.747 24.88 130.819 25.368 129.619 25.704C128.435 26.04 127.035 26.208 125.419 26.208C123.803 26.208 122.395 26.04 121.195 25.704C120.011 25.368 119.091 24.88 118.435 24.24C117.779 23.6 117.451 22.84 117.451 21.96C117.451 21.08 117.779 20.32 118.435 19.68C119.091 19.04 120.011 18.552 121.195 18.216C122.395 17.864 123.803 17.688 125.419 17.688ZM125.419 20.328C124.459 20.328 123.643 20.392 122.971 20.52C122.315 20.632 121.819 20.808 121.483 21.048C121.147 21.288 120.979 21.592 120.979 21.96C120.979 22.328 121.147 22.632 121.483 22.872C121.819 23.096 122.315 23.272 122.971 23.4C123.643 23.512 124.459 23.568 125.419 23.568C126.395 23.568 127.211 23.512 127.867 23.4C128.523 23.272 129.019 23.096 129.355 22.872C129.707 22.632 129.883 22.328 129.883 21.96C129.883 21.592 129.707 21.288 129.355 21.048C129.019 20.808 128.523 20.632 127.867 20.52C127.211 20.392 126.395 20.328 125.419 20.328ZM117.715 4.776H131.827V7.56H117.715V4.776ZM115.483 13.68H135.619V16.488H115.483V13.68ZM122.731 9.912H126.235V14.376H122.731V9.912ZM129.763 4.776H133.291V6.6C133.291 7.48 133.267 8.416 133.219 9.408C133.171 10.384 132.987 11.448 132.667 12.6L129.163 12.24C129.467 11.104 129.643 10.096 129.691 9.216C129.739 8.336 129.763 7.464 129.763 6.6V4.776ZM149.682 9.12H153.738V11.976H149.682V9.12ZM152.778 3.84H156.33V17.112H152.778V3.84ZM148.674 17.544C150.274 17.544 151.65 17.72 152.802 18.072C153.954 18.408 154.842 18.904 155.466 19.56C156.09 20.2 156.402 20.976 156.402 21.888C156.402 23.28 155.706 24.352 154.314 25.104C152.938 25.856 151.058 26.232 148.674 26.232C146.29 26.232 144.41 25.856 143.034 25.104C141.658 24.352 140.97 23.28 140.97 21.888C140.97 20.976 141.282 20.2 141.906 19.56C142.53 18.904 143.418 18.408 144.57 18.072C145.738 17.72 147.106 17.544 148.674 17.544ZM148.674 20.208C147.746 20.208 146.97 20.272 146.346 20.4C145.738 20.512 145.274 20.688 144.954 20.928C144.65 21.168 144.498 21.488 144.498 21.888C144.498 22.272 144.65 22.592 144.954 22.848C145.274 23.088 145.738 23.272 146.346 23.4C146.97 23.512 147.746 23.568 148.674 23.568C149.618 23.568 150.394 23.512 151.002 23.4C151.626 23.272 152.09 23.088 152.394 22.848C152.714 22.592 152.874 22.272 152.874 21.888C152.874 21.488 152.714 21.168 152.394 20.928C152.09 20.688 151.626 20.512 151.002 20.4C150.394 20.272 149.618 20.208 148.674 20.208ZM142.53 6.072H145.41V7.368C145.41 8.792 145.194 10.16 144.762 11.472C144.33 12.784 143.65 13.944 142.722 14.952C141.794 15.944 140.594 16.68 139.122 17.16L137.346 14.376C138.29 14.072 139.09 13.664 139.746 13.152C140.418 12.64 140.954 12.072 141.354 11.448C141.77 10.808 142.066 10.144 142.242 9.456C142.434 8.752 142.53 8.056 142.53 7.368V6.072ZM143.298 6.072H146.13V7.368C146.13 8.216 146.29 9.064 146.61 9.912C146.93 10.76 147.458 11.528 148.194 12.216C148.93 12.888 149.89 13.432 151.074 13.848L149.37 16.608C147.93 16.144 146.762 15.448 145.866 14.52C144.986 13.576 144.338 12.488 143.922 11.256C143.506 10.008 143.298 8.712 143.298 7.368V6.072ZM138.282 5.112H150.33V7.896H138.282V5.112ZM161.896 13.68H177.736V16.488H161.896V13.68ZM159.616 20.88H179.848V23.76H159.616V20.88ZM167.944 14.952H171.472V21.768H167.944V14.952ZM161.896 5.28H177.568V8.112H165.424V14.88H161.896V5.28Z" fill="url(#paint0_linear_334_1663)"/>
<path d="M4.136 24H2.536V25.6H4.136V24ZM4.136 6.168V4.568H2.536V6.168H4.136ZM13.928 6.672L13.4292 8.19227L13.4361 8.19451L13.928 6.672ZM16.4 15L15.0915 14.0792L16.4 15ZM13.928 16.896L13.3536 15.4026L13.3458 15.4057L13.928 16.896ZM8.048 17.496V15.896H6.448V17.496H8.048ZM8.048 24V25.6H9.648V24H8.048ZM8.048 14.4H6.448V16H8.048V14.4ZM12.632 13.704L11.6283 12.458L11.6197 12.4649L11.6112 12.472L12.632 13.704ZM12.632 9.816L11.7805 11.1706L11.8029 11.1847L11.8258 11.198L12.632 9.816ZM8.048 9.288V7.688H6.448V9.288H8.048ZM13.784 24L12.3724 24.7532L12.8242 25.6H13.784V24ZM9.776 16.488L8.68169 15.3207L7.78716 16.1594L8.36436 17.2412L9.776 16.488ZM12.464 13.968L13.8558 13.1788L12.853 11.4101L11.3697 12.8007L12.464 13.968ZM18.152 24V25.6H20.8985L19.5438 23.2108L18.152 24ZM4.136 24H5.736V6.168H4.136H2.536V24H4.136ZM4.136 6.168V7.768H10.496V6.168V4.568H4.136V6.168ZM10.496 6.168V7.768C11.6191 7.768 12.5912 7.91731 13.4292 8.19225L13.928 6.672L14.4268 5.15175C13.2168 4.75469 11.9009 4.568 10.496 4.568V6.168ZM13.928 6.672L13.4361 8.19451C14.1936 8.43923 14.7335 8.82748 15.1261 9.34413L16.4 8.376L17.6739 7.40787C16.8505 6.32452 15.7424 5.57677 14.4199 5.14949L13.928 6.672ZM16.4 8.376L15.1261 9.34413C15.4524 9.77341 15.712 10.4926 15.712 11.688H17.312H18.912C18.912 10.0674 18.5636 8.57859 17.6739 7.40787L16.4 8.376ZM17.312 11.688H15.712C15.712 12.7922 15.4639 13.55 15.0915 14.0792L16.4 15L17.7085 15.9208C18.5521 14.722 18.912 13.2718 18.912 11.688H17.312ZM16.4 15L15.0915 14.0792C14.6763 14.6692 14.1147 15.1099 13.3536 15.4026L13.928 16.896L14.5024 18.3894C15.8213 17.8821 16.9077 17.0588 17.7085 15.9208L16.4 15ZM13.928 16.896L13.3458 15.4057C12.533 15.7232 11.5903 15.896 10.496 15.896V17.496V19.096C11.9297 19.096 13.275 18.8688 14.5102 18.3863L13.928 16.896ZM10.496 17.496V15.896H8.048V17.496V19.096H10.496V17.496ZM8.048 17.496H6.448V24H8.048H9.648V17.496H8.048ZM8.048 24V22.4H4.136V24V25.6H8.048V24ZM8.048 14.4V16H10.16V14.4V12.8H8.048V14.4ZM10.16 14.4V16C11.4426 16 12.6934 15.731 13.6528 14.936L12.632 13.704L11.6112 12.472C11.4506 12.605 11.0534 12.8 10.16 12.8V14.4ZM12.632 13.704L13.6357 14.95C14.6618 14.1235 15.096 12.9499 15.096 11.688H13.496H11.896C11.896 12.1861 11.7542 12.3565 11.6283 12.458L12.632 13.704ZM13.496 11.688H15.096C15.096 10.4424 14.6799 9.15828 13.4382 8.43395L12.632 9.816L11.8258 11.198C11.8315 11.2013 11.8271 11.1994 11.8207 11.1923C11.8147 11.1856 11.8182 11.1869 11.8273 11.2065C11.848 11.2514 11.896 11.3914 11.896 11.688H13.496ZM12.632 9.816L13.4835 8.46138C12.5527 7.87632 11.3747 7.688 10.16 7.688V9.288V10.888C11.1213 10.888 11.5913 11.0517 11.7805 11.1706L12.632 9.816ZM10.16 9.288V7.688H8.048V9.288V10.888H10.16V9.288ZM8.048 9.288H6.448V14.4H8.048H9.648V9.288H8.048ZM13.784 24L15.1956 23.2468L11.1876 15.7348L9.776 16.488L8.36436 17.2412L12.3724 24.7532L13.784 24ZM9.776 16.488L10.8703 17.6553L13.5583 15.1353L12.464 13.968L11.3697 12.8007L8.68169 15.3207L9.776 16.488ZM12.464 13.968L11.0722 14.7572L16.7602 24.7892L18.152 24L19.5438 23.2108L13.8558 13.1788L12.464 13.968ZM18.152 24V22.4H13.784V24V25.6H18.152V24ZM23.8235 23.232L22.9819 24.5928L22.9885 24.5968L22.995 24.6008L23.8235 23.232ZM20.9675 20.016L19.5235 20.7052L19.5283 20.7151L19.5331 20.7249L20.9675 20.016ZM20.9675 10.056L19.5364 9.34045L19.5331 9.34722L20.9675 10.056ZM23.8235 6.936L24.6252 8.32068L24.6319 8.31675L24.6387 8.31276L23.8235 6.936ZM32.2235 6.936L31.4003 8.30801L31.4083 8.31276L32.2235 6.936ZM35.0555 10.056L33.6211 10.7648L33.6244 10.7715L33.6278 10.7783L35.0555 10.056ZM35.0555 20.016L33.6179 19.3135L33.6146 19.3204L35.0555 20.016ZM32.2235 23.232L33.06 24.5959L33.0651 24.5928L32.2235 23.232ZM30.1835 20.232L31.1749 21.4878L31.185 21.4799L31.1949 21.4718L30.1835 20.232ZM31.5995 18.168L33.0943 18.7387L33.0976 18.7298L31.5995 18.168ZM31.5995 11.904L30.1047 12.4747L30.1083 12.4839L31.5995 11.904ZM30.1835 9.912L29.2128 11.1839L29.2235 11.1921L29.2344 11.2001L30.1835 9.912ZM25.8635 9.912L26.8126 11.2001L26.8235 11.1921L26.8342 11.1839L25.8635 9.912ZM24.4475 11.904L22.9528 11.3333L22.9499 11.3408L22.9471 11.3483L24.4475 11.904ZM24.4475 18.168L22.9407 18.7061L22.9466 18.7225L22.9528 18.7387L24.4475 18.168ZM25.8635 20.232L24.8521 21.4718L24.862 21.4799L24.8721 21.4878L25.8635 20.232ZM28.0235 24.336V22.736C26.6972 22.736 25.5903 22.4311 24.652 21.8632L23.8235 23.232L22.995 24.6008C24.4887 25.5049 26.1818 25.936 28.0235 25.936V24.336ZM23.8235 23.232L24.6651 21.8712C23.7256 21.2902 22.969 20.4546 22.4019 19.3071L20.9675 20.016L19.5331 20.7249C20.342 22.3614 21.4894 23.6698 22.9819 24.5928L23.8235 23.232ZM20.9675 20.016L22.4115 19.3268C21.8639 18.1795 21.5595 16.7536 21.5595 15H19.9595H18.3595C18.3595 17.1184 18.7271 19.0365 19.5235 20.7052L20.9675 20.016ZM19.9595 15H21.5595C21.5595 13.244 21.8647 11.8521 22.4019 10.7648L20.9675 10.056L19.5331 9.34722C18.7263 10.9799 18.3595 12.884 18.3595 15H19.9595ZM20.9675 10.056L22.3986 10.7715C22.9605 9.64767 23.7054 8.85315 24.6252 8.32068L23.8235 6.936L23.0218 5.55132C21.5096 6.42684 20.3505 7.71233 19.5364 9.34046L20.9675 10.056ZM23.8235 6.936L24.6387 8.31276C25.579 7.75598 26.6908 7.456 28.0235 7.456V5.856V4.256C26.1882 4.256 24.5 4.67602 23.0083 5.55924L23.8235 6.936ZM28.0235 5.856V7.456C29.3759 7.456 30.4829 7.75757 31.4003 8.30799L32.2235 6.936L33.0467 5.56401C31.5641 4.67443 29.8711 4.256 28.0235 4.256V5.856ZM32.2235 6.936L31.4083 8.31276C32.3378 8.86309 33.0758 9.66138 33.6211 10.7648L35.0555 10.056L36.4899 9.34722C35.6912 7.73062 34.5412 6.44891 33.0387 5.55924L32.2235 6.936ZM35.0555 10.056L33.6278 10.7783C34.1761 11.8621 34.4875 13.249 34.4875 15H36.0875H37.6875C37.6875 12.879 37.3109 10.9699 36.4832 9.33375L35.0555 10.056ZM36.0875 15H34.4875C34.4875 16.7487 34.1769 18.1697 33.6179 19.3136L35.0555 20.016L36.4931 20.7184C37.3101 19.0463 37.6875 17.1233 37.6875 15H36.0875ZM35.0555 20.016L33.6146 19.3204C33.0638 20.4613 32.3179 21.2924 31.382 21.8712L32.2235 23.232L33.0651 24.5928C34.5611 23.6676 35.7032 22.3547 36.4964 20.7116L35.0555 20.016ZM32.2235 23.232L31.387 21.8681C30.4717 22.4295 29.3695 22.736 28.0235 22.736V24.336V25.936C29.8775 25.936 31.5753 25.5065 33.06 24.5959L32.2235 23.232ZM28.0235 20.952V22.552C29.1868 22.552 30.263 22.2078 31.1749 21.4878L30.1835 20.232L29.1921 18.9762C28.888 19.2162 28.5242 19.352 28.0235 19.352V20.952ZM30.1835 20.232L31.1949 21.4718C32.0595 20.7665 32.6784 19.8277 33.0942 18.7387L31.5995 18.168L30.1048 17.5973C29.8486 18.2683 29.5235 18.7055 29.1721 18.9922L30.1835 20.232ZM31.5995 18.168L33.0976 18.7298C33.5165 17.6129 33.7035 16.3582 33.7035 15H32.1035H30.5035C30.5035 16.0738 30.3545 16.9311 30.1014 17.6062L31.5995 18.168ZM32.1035 15H33.7035C33.7035 13.6572 33.5163 12.4185 33.0907 11.3241L31.5995 11.904L30.1083 12.4839C30.3547 13.1175 30.5035 13.9428 30.5035 15H32.1035ZM31.5995 11.904L33.0942 11.3333C32.6759 10.2375 32.0421 9.29404 31.1326 8.62391L30.1835 9.912L29.2344 11.2001C29.5409 11.426 29.8511 11.8105 30.1048 12.4747L31.5995 11.904ZM30.1835 9.912L31.1542 8.64008C30.2424 7.94426 29.1736 7.616 28.0235 7.616V9.216V10.816C28.5374 10.816 28.9086 10.9517 29.2128 11.1839L30.1835 9.912ZM28.0235 9.216V7.616C26.8734 7.616 25.8046 7.94426 24.8928 8.64008L25.8635 9.912L26.8342 11.1839C27.1384 10.9517 27.5096 10.816 28.0235 10.816V9.216ZM25.8635 9.912L24.9144 8.62391C24.0049 9.29404 23.3711 10.2375 22.9528 11.3333L24.4475 11.904L25.9422 12.4747C26.1959 11.8105 26.5061 11.426 26.8126 11.2001L25.8635 9.912ZM24.4475 11.904L22.9471 11.3483C22.5447 12.4349 22.3675 13.6647 22.3675 15H23.9675H25.5675C25.5675 13.9353 25.7103 13.1011 25.9479 12.4597L24.4475 11.904ZM23.9675 15H22.3675C22.3675 16.3508 22.5446 17.597 22.9407 18.7061L24.4475 18.168L25.9543 17.6299C25.7104 16.947 25.5675 16.0812 25.5675 15H23.9675ZM24.4475 18.168L22.9528 18.7387C23.3686 19.8277 23.9875 20.7665 24.8521 21.4718L25.8635 20.232L26.8749 18.9922C26.5235 18.7055 26.1984 18.2683 25.9422 17.5973L24.4475 18.168ZM25.8635 20.232L24.8721 21.4878C25.784 22.2078 26.8602 22.552 28.0235 22.552V20.952V19.352C27.5228 19.352 27.159 19.2162 26.8549 18.9762L25.8635 20.232ZM49.0681 5.496V3.896H47.4681V5.496H49.0681ZM51.9481 5.496H53.5481V3.896H51.9481V5.496ZM51.5881 12.816L50.0119 12.5411L50.0106 12.5485L50.0094 12.556L51.5881 12.816ZM50.4601 16.632L48.9988 15.9803L48.9952 15.9886L48.9916 15.9969L50.4601 16.632ZM48.4681 19.752L47.2852 18.6747L47.2842 18.6757L48.4681 19.752ZM45.5161 21.864L44.2171 22.798L44.9817 23.8615L46.1752 23.322L45.5161 21.864ZM43.4281 18.96L42.7979 17.4894L40.9649 18.2749L42.1291 19.894L43.4281 18.96ZM45.9961 17.232L44.8524 16.1131L44.8521 16.1134L45.9961 17.232ZM47.7481 14.736L46.317 14.0205L46.3121 14.0304L46.3072 14.0404L47.7481 14.736ZM48.7561 11.76L47.1863 11.4508L48.7561 11.76ZM49.7881 5.496V3.896H48.1881V5.496H49.7881ZM52.6441 5.496H54.2441V3.896H52.6441V5.496ZM52.9321 11.616L51.3604 11.9154L51.3613 11.92L52.9321 11.616ZM53.8681 14.448L52.4269 15.1429L52.4344 15.1585L52.4423 15.1739L53.8681 14.448ZM55.5721 16.8L54.4408 17.9314L54.4473 17.9379L54.4538 17.9443L55.5721 16.8ZM58.1161 18.456L59.4129 19.3932L60.5933 17.7598L58.7349 16.9805L58.1161 18.456ZM56.0521 21.312L55.4042 22.775L56.5896 23.2999L57.3489 22.2492L56.0521 21.312ZM51.2281 16.296L52.6911 15.6481V15.6481L51.2281 16.296ZM50.1241 12.648L48.5464 12.9141L48.5483 12.925L48.5502 12.9359L50.1241 12.648ZM58.8361 3.792V2.192H57.2361V3.792H58.8361ZM62.3881 3.792H63.9881V2.192H62.3881V3.792ZM62.3881 26.256V27.856H63.9881V26.256H62.3881ZM58.8361 26.256H57.2361V27.856H58.8361V26.256ZM49.0681 5.496V7.096H51.9481V5.496V3.896H49.0681V5.496ZM51.9481 5.496H50.3481V8.544H51.9481H53.5481V5.496H51.9481ZM51.9481 8.544H50.3481C50.3481 9.92877 50.2353 11.2606 50.0119 12.5411L51.5881 12.816L53.1643 13.0909C53.421 11.6194 53.5481 10.1032 53.5481 8.544H51.9481ZM51.5881 12.816L50.0094 12.556C49.8062 13.7894 49.4677 14.929 48.9988 15.9803L50.4601 16.632L51.9214 17.2837C52.5085 15.967 52.922 14.5625 53.1669 13.076L51.5881 12.816ZM50.4601 16.632L48.9916 15.9969C48.5452 17.0293 47.9747 17.9175 47.2852 18.6747L48.4681 19.752L49.6511 20.8293C50.5935 19.7945 51.3511 18.6027 51.9287 17.2671L50.4601 16.632ZM48.4681 19.752L47.2842 18.6757C46.6424 19.3817 45.8416 19.961 44.8571 20.406L45.5161 21.864L46.1752 23.322C47.5267 22.711 48.6938 21.8823 49.652 20.8283L48.4681 19.752ZM45.5161 21.864L46.8152 20.93L44.7272 18.026L43.4281 18.96L42.1291 19.894L44.2171 22.798L45.5161 21.864ZM43.4281 18.96L44.0584 20.4306C45.2418 19.9235 46.277 19.2333 47.1401 18.3506L45.9961 17.232L44.8521 16.1134C44.3072 16.6707 43.6305 17.1325 42.7979 17.4894L43.4281 18.96ZM45.9961 17.232L47.1399 18.3509C47.9813 17.4907 48.6656 16.5157 49.189 15.4316L47.7481 14.736L46.3072 14.0404C45.9346 14.8123 45.4509 15.5013 44.8524 16.1131L45.9961 17.232ZM47.7481 14.736L49.1792 15.4515C49.7099 14.3902 50.0912 13.261 50.326 12.0692L48.7561 11.76L47.1863 11.4508C47.005 12.371 46.7144 13.2258 46.317 14.0205L47.7481 14.736ZM48.7561 11.76L50.326 12.0692C50.5542 10.9103 50.6681 9.73467 50.6681 8.544H49.0681H47.4681C47.4681 9.52933 47.374 10.4977 47.1863 11.4508L48.7561 11.76ZM49.0681 8.544H50.6681V5.496H49.0681H47.4681V8.544H49.0681ZM49.7881 5.496V7.096H52.6441V5.496V3.896H49.7881V5.496ZM52.6441 5.496H51.0441V8.544H52.6441H54.2441V5.496H52.6441ZM52.6441 8.544H51.0441C51.0441 9.68309 51.1493 10.8074 51.3604 11.9154L52.9321 11.616L54.5039 11.3166C54.3309 10.4086 54.2441 9.4849 54.2441 8.544H52.6441ZM52.9321 11.616L51.3613 11.92C51.5791 13.0452 51.9341 14.1208 52.4269 15.1429L53.8681 14.448L55.3094 13.7531C54.9382 12.9832 54.6692 12.1708 54.503 11.312L52.9321 11.616ZM53.8681 14.448L52.4423 15.1739C52.9654 16.2014 53.6321 17.1227 54.4408 17.9314L55.5721 16.8L56.7035 15.6686C56.1361 15.1013 55.6669 14.4546 55.294 13.7221L53.8681 14.448ZM55.5721 16.8L54.4538 17.9443C55.3148 18.7857 56.3368 19.4448 57.4974 19.9315L58.1161 18.456L58.7349 16.9805C57.9115 16.6352 57.2374 16.1903 56.6904 15.6557L55.5721 16.8ZM58.1161 18.456L56.8193 17.5188L54.7553 20.3748L56.0521 21.312L57.3489 22.2492L59.4129 19.3932L58.1161 18.456ZM56.0521 21.312L56.7 19.849C55.771 19.4376 54.9922 18.8827 54.3461 18.1849L53.1721 19.272L51.9981 20.3591C52.952 21.3893 54.0933 22.1944 55.4042 22.775L56.0521 21.312ZM53.1721 19.272L54.3461 18.1849C53.6708 17.4556 53.1185 16.6134 52.6911 15.6481L51.2281 16.296L49.7652 16.9439C50.3297 18.2186 51.0735 19.3604 51.9981 20.3591L53.1721 19.272ZM51.2281 16.296L52.6911 15.6481C52.2504 14.653 51.9173 13.559 51.698 12.3601L50.1241 12.648L48.5502 12.9359C48.8109 14.361 49.2139 15.699 49.7652 16.9439L51.2281 16.296ZM50.1241 12.648L51.7018 12.3819C51.4933 11.1457 51.3881 9.86686 51.3881 8.544H49.7881H48.1881C48.1881 10.0371 48.3069 11.4943 48.5464 12.9141L50.1241 12.648ZM49.7881 8.544H51.3881V5.496H49.7881H48.1881V8.544H49.7881ZM58.8361 3.792V5.392H62.3881V3.792V2.192H58.8361V3.792ZM62.3881 3.792H60.7881V26.256H62.3881H63.9881V3.792H62.3881ZM62.3881 26.256V24.656H58.8361V26.256V27.856H62.3881V26.256ZM58.8361 26.256H60.4361V3.792H58.8361H57.2361V26.256H58.8361ZM73.9542 5.04V3.44H72.3542V5.04H73.9542ZM77.0263 5.04H78.6263V3.44H77.0263V5.04ZM76.6423 9.48L75.0999 9.05451L75.0973 9.06365L75.0949 9.07281L76.6423 9.48ZM75.5143 12.072L74.159 11.2216L74.1529 11.2312L74.147 11.2409L75.5143 12.072ZM73.6423 14.304L72.5761 13.111L72.5697 13.1167L72.5634 13.1224L73.6423 14.304ZM67.7142 17.088L66.2926 17.8221L66.8358 18.874L68.0005 18.6622L67.7142 17.088ZM66.2022 14.16L65.9202 12.5851L63.7856 12.9674L64.7806 14.8941L66.2022 14.16ZM69.0583 13.32L68.4213 11.8522L68.411 11.8567L69.0583 13.32ZM71.2422 12L70.2273 10.7631L70.2194 10.7696L70.2116 10.7761L71.2422 12ZM74.6742 5.04V3.44H73.0742V5.04H74.6742ZM77.7223 5.04H79.3223V3.44H77.7223V5.04ZM78.0103 8.52L76.4777 8.97975V8.97976L78.0103 8.52ZM78.8982 10.392L77.5616 11.2714L77.567 11.2796L77.5725 11.2878L78.8982 10.392ZM80.4102 12.024L79.3988 13.2638V13.2638L80.4102 12.024ZM82.5703 13.344L81.8998 14.7967L81.9164 14.8044L81.9333 14.8118L82.5703 13.344ZM85.4743 14.16L86.8959 14.8941L87.9086 12.933L85.7298 12.5805L85.4743 14.16ZM83.9622 17.088L83.676 18.6622L84.8407 18.874L85.3839 17.8221L83.9622 17.088ZM80.6263 16.032L79.9201 17.4678L79.9294 17.4723L80.6263 16.032ZM78.0342 14.328L76.9554 15.5096L76.9688 15.5218L76.9825 15.5337L78.0342 14.328ZM76.1622 12.096L74.795 12.9271L74.8009 12.9368L74.8069 12.9464L76.1622 12.096ZM75.0342 9.504L73.4852 9.90461L73.4893 9.92056L73.4938 9.93641L75.0342 9.504ZM65.8423 20.688V19.088H64.2422V20.688H65.8423ZM86.0742 20.688H87.6742V19.088H86.0742V20.688ZM86.0742 23.544V25.144H87.6742V23.544H86.0742ZM65.8423 23.544H64.2422V25.144H65.8423V23.544ZM73.9542 5.04V6.64H77.0263V5.04V3.44H73.9542V5.04ZM77.0263 5.04H75.4262V6.624H77.0263H78.6263V5.04H77.0263ZM77.0263 6.624H75.4262C75.4262 7.45824 75.3171 8.26704 75.0999 9.05451L76.6423 9.48L78.1846 9.90549C78.4794 8.83696 78.6263 7.74176 78.6263 6.624H77.0263ZM76.6423 9.48L75.0949 9.07281C74.897 9.82484 74.5868 10.5398 74.159 11.2216L75.5143 12.072L76.8696 12.9224C77.4657 11.9722 77.9075 10.9592 78.1896 9.88719L76.6423 9.48ZM75.5143 12.072L74.147 11.2409C73.7375 11.9147 73.2171 12.5382 72.5761 13.111L73.6423 14.304L74.7084 15.497C75.5714 14.7258 76.299 13.8613 76.8815 12.9031L75.5143 12.072ZM73.6423 14.304L72.5634 13.1224C71.9529 13.6798 71.2208 14.172 70.3534 14.5917L71.0502 16.032L71.7471 17.4723C72.8637 16.932 73.8596 16.2722 74.7211 15.4856L73.6423 14.304ZM71.0502 16.032L70.3534 14.5917C69.5079 15.0009 68.5367 15.3122 67.428 15.5138L67.7142 17.088L68.0005 18.6622C69.3558 18.4158 70.6086 18.0231 71.7471 17.4723L71.0502 16.032ZM67.7142 17.088L69.1359 16.3539L67.6239 13.4259L66.2022 14.16L64.7806 14.8941L66.2926 17.8221L67.7142 17.088ZM66.2022 14.16L66.4843 15.7349C67.6582 15.5247 68.7364 15.2119 69.7055 14.7833L69.0583 13.32L68.411 11.8567C67.7161 12.1641 66.8903 12.4113 65.9202 12.5851L66.2022 14.16ZM69.0583 13.32L69.6952 14.7878C70.6629 14.3678 71.5287 13.8505 72.2729 13.2239L71.2422 12L70.2116 10.7761C69.7398 11.1735 69.1496 11.5362 68.4213 11.8522L69.0583 13.32ZM71.2422 12L72.2572 13.2369C72.9855 12.6393 73.607 11.9753 74.104 11.2398L72.7783 10.344L71.4525 9.44823C71.1495 9.89671 70.747 10.3367 70.2273 10.7631L71.2422 12ZM72.7783 10.344L74.104 11.2398C74.5883 10.523 74.9572 9.76109 75.1988 8.95576L73.6663 8.496L72.1337 8.03624C71.9913 8.51091 71.7682 8.98099 71.4525 9.44823L72.7783 10.344ZM73.6663 8.496L75.1988 8.95576C75.4311 8.18123 75.5543 7.40229 75.5543 6.624H73.9542H72.3542C72.3542 7.06171 72.2854 7.53076 72.1337 8.03624L73.6663 8.496ZM73.9542 6.624H75.5543V5.04H73.9542H72.3542V6.624H73.9542ZM74.6742 5.04V6.64H77.7223V5.04V3.44H74.6742V5.04ZM77.7223 5.04H76.1223V6.624H77.7223H79.3223V5.04H77.7223ZM77.7223 6.624H76.1223C76.1223 7.41435 76.2441 8.20114 76.4777 8.97975L78.0103 8.52L79.5428 8.06024C79.3924 7.55885 79.3223 7.08165 79.3223 6.624H77.7223ZM78.0103 8.52L76.4777 8.97976C76.7181 9.78101 77.0839 10.5452 77.5616 11.2714L78.8982 10.392L80.2349 9.51261C79.9127 9.02277 79.6864 8.53899 79.5428 8.06024L78.0103 8.52ZM78.8982 10.392L77.5725 11.2878C78.0681 12.0212 78.6816 12.6787 79.3988 13.2638L80.4102 12.024L81.4217 10.7842C80.9229 10.3773 80.5284 9.94681 80.224 9.49623L78.8982 10.392ZM80.4102 12.024L79.3988 13.2638C80.1268 13.8576 80.9655 14.3655 81.8998 14.7967L82.5703 13.344L83.2407 11.8913C82.511 11.5545 81.9097 11.1824 81.4217 10.7842L80.4102 12.024ZM82.5703 13.344L81.9333 14.8118C82.924 15.2417 84.0238 15.5462 85.2188 15.7395L85.4743 14.16L85.7298 12.5805C84.7487 12.4218 83.9125 12.1823 83.2072 11.8762L82.5703 13.344ZM85.4743 14.16L84.0526 13.4259L82.5406 16.3539L83.9622 17.088L85.3839 17.8221L86.8959 14.8941L85.4743 14.16ZM83.9622 17.088L84.2485 15.5138C83.1398 15.3122 82.1686 15.0009 81.3232 14.5917L80.6263 16.032L79.9294 17.4723C81.0679 18.0231 82.3207 18.4158 83.676 18.6622L83.9622 17.088ZM80.6263 16.032L81.3324 14.5962C80.47 14.1721 79.7244 13.6791 79.086 13.1223L78.0342 14.328L76.9825 15.5337C77.8481 16.2889 78.8305 16.9319 79.9201 17.4678L80.6263 16.032ZM78.0342 14.328L79.1131 13.1464C78.4801 12.5684 77.9501 11.9351 77.5176 11.2456L76.1622 12.096L74.8069 12.9464C75.3984 13.8889 76.1164 14.7436 76.9554 15.5096L78.0342 14.328ZM76.1622 12.096L77.5295 11.2649C77.1085 10.5723 76.7911 9.8423 76.5747 9.07159L75.0342 9.504L73.4938 9.93641C73.7895 10.9897 74.224 11.9877 74.795 12.9271L76.1622 12.096ZM75.0342 9.504L76.5833 9.10339C76.3783 8.31074 76.2743 7.48558 76.2743 6.624H74.6742H73.0742C73.0742 7.74642 73.2102 8.84126 73.4852 9.90461L75.0342 9.504ZM74.6742 6.624H76.2743V5.04H74.6742H73.0742V6.624H74.6742ZM65.8423 20.688V22.288H86.0742V20.688V19.088H65.8423V20.688ZM86.0742 20.688H84.4743V23.544H86.0742H87.6742V20.688H86.0742ZM86.0742 23.544V21.944H65.8423V23.544V25.144H86.0742V23.544ZM65.8423 23.544H67.4423V20.688H65.8423H64.2422V23.544H65.8423ZM97.3044 9.144V7.544H95.7044V9.144H97.3044ZM100.592 9.144H102.192V7.544H100.592V9.144ZM100.592 11.952V13.552H102.192V11.952H100.592ZM97.3044 11.952H95.7044V13.552H97.3044V11.952ZM88.7124 13.656V12.056H87.1124V13.656H88.7124ZM93.1044 13.632L93.1351 15.2317L93.1044 13.632ZM95.5044 13.512L95.6372 15.1065L95.6537 15.1051L95.6701 15.1034L95.5044 13.512ZM97.8564 13.224L99.4459 13.0411L99.2585 11.4121L97.6345 11.6395L97.8564 13.224ZM98.1684 15.936L98.4705 17.5072L99.9275 17.227L99.7579 15.7531L98.1684 15.936ZM95.7204 16.272L95.5928 14.6771L95.7204 16.272ZM93.2004 16.392L93.1713 14.7923L93.1708 14.7923L93.2004 16.392ZM88.7124 16.416H87.1124V18.016H88.7124V16.416ZM88.7124 5.112V3.512H87.1124V5.112H88.7124ZM97.1364 5.112H98.7364V3.512H97.1364V5.112ZM97.1364 7.896V9.496H98.7364V7.896H97.1364ZM92.1204 7.896V6.296H90.5204V7.896H92.1204ZM92.1204 15.264V16.864H93.7204V15.264H92.1204ZM88.7124 15.264H87.1124V16.864H88.7124V15.264ZM91.1124 9.408V7.808H89.5124V9.408H91.1124ZM96.3444 9.408H97.9444V7.808H96.3444V9.408ZM96.3444 12.048V13.648H97.9444V12.048H96.3444ZM91.1124 12.048H89.5124V13.648H91.1124V12.048ZM103.664 3.84V2.24H102.064V3.84H103.664ZM107.024 3.84H108.624V2.24H107.024V3.84ZM107.024 17.136V18.736H108.624V17.136H107.024ZM103.664 17.136H102.064V18.736H103.664V17.136ZM99.2724 4.152V2.552H97.6724V4.152H99.2724ZM102.56 4.152H104.16V2.552H102.56V4.152ZM102.56 16.968V18.568H104.16V16.968H102.56ZM99.2724 16.968H97.6724V18.568H99.2724V16.968ZM91.7364 17.976V16.376H90.1364V17.976H91.7364ZM107.024 17.976H108.624V16.376H107.024V17.976ZM107.024 25.968V27.568H108.624V25.968H107.024ZM91.7364 25.968H90.1364V27.568H91.7364V25.968ZM103.568 20.736H105.168V19.136H103.568V20.736ZM95.2164 20.736V19.136H93.6164V20.736H95.2164ZM95.2164 23.208H93.6164V24.808H95.2164V23.208ZM103.568 23.208V24.808H105.168V23.208H103.568ZM97.3044 9.144V10.744H100.592V9.144V7.544H97.3044V9.144ZM100.592 9.144H98.9924V11.952H100.592H102.192V9.144H100.592ZM100.592 11.952V10.352H97.3044V11.952V13.552H100.592V11.952ZM97.3044 11.952H98.9044V9.144H97.3044H95.7044V11.952H97.3044ZM88.7124 13.656V15.256H90.2724V13.656V12.056H88.7124V13.656ZM90.2724 13.656V15.256C91.3361 15.256 92.2906 15.2479 93.1351 15.2317L93.1044 13.632L93.0736 12.0323C92.2542 12.0481 91.3207 12.056 90.2724 12.056V13.656ZM93.1044 13.632L93.1351 15.2317C93.9986 15.2151 94.8327 15.1735 95.6372 15.1065L95.5044 13.512L95.3715 11.9175C94.64 11.9785 93.8742 12.0169 93.0736 12.0323L93.1044 13.632ZM95.5044 13.512L95.6701 15.1034C96.4577 15.0214 97.2604 14.923 98.0782 14.8085L97.8564 13.224L97.6345 11.6395C96.8523 11.749 96.087 11.8426 95.3386 11.9206L95.5044 13.512ZM97.8564 13.224L96.2669 13.4069L96.5789 16.1189L98.1684 15.936L99.7579 15.7531L99.4459 13.0411L97.8564 13.224ZM98.1684 15.936L97.8662 14.3648C97.0888 14.5143 96.3311 14.618 95.5928 14.6771L95.7204 16.272L95.848 17.8669C96.7097 17.798 97.584 17.6777 98.4705 17.5072L98.1684 15.936ZM95.7204 16.272L95.5928 14.6771C94.8285 14.7382 94.0215 14.7768 93.1713 14.7923L93.2004 16.392L93.2295 17.9917C94.1392 17.9752 95.0122 17.9338 95.848 17.8669L95.7204 16.272ZM93.2004 16.392L93.1708 14.7923C92.3188 14.8081 91.3529 14.816 90.2724 14.816V16.416V18.016C91.3679 18.016 92.354 18.0079 93.23 17.9917L93.2004 16.392ZM90.2724 16.416V14.816H88.7124V16.416V18.016H90.2724V16.416ZM88.7124 16.416H90.3124V13.656H88.7124H87.1124V16.416H88.7124ZM88.7124 5.112V6.712H97.1364V5.112V3.512H88.7124V5.112ZM97.1364 5.112H95.5364V7.896H97.1364H98.7364V5.112H97.1364ZM97.1364 7.896V6.296H92.1204V7.896V9.496H97.1364V7.896ZM92.1204 7.896H90.5204V15.264H92.1204H93.7204V7.896H92.1204ZM92.1204 15.264V13.664H88.7124V15.264V16.864H92.1204V15.264ZM88.7124 15.264H90.3124V5.112H88.7124H87.1124V15.264H88.7124ZM91.1124 9.408V11.008H96.3444V9.408V7.808H91.1124V9.408ZM96.3444 9.408H94.7444V12.048H96.3444H97.9444V9.408H96.3444ZM96.3444 12.048V10.448H91.1124V12.048V13.648H96.3444V12.048ZM91.1124 12.048H92.7124V9.408H91.1124H89.5124V12.048H91.1124ZM103.664 3.84V5.44H107.024V3.84V2.24H103.664V3.84ZM107.024 3.84H105.424V17.136H107.024H108.624V3.84H107.024ZM107.024 17.136V15.536H103.664V17.136V18.736H107.024V17.136ZM103.664 17.136H105.264V3.84H103.664H102.064V17.136H103.664ZM99.2724 4.152V5.752H102.56V4.152V2.552H99.2724V4.152ZM102.56 4.152H100.96V16.968H102.56H104.16V4.152H102.56ZM102.56 16.968V15.368H99.2724V16.968V18.568H102.56V16.968ZM99.2724 16.968H100.872V4.152H99.2724H97.6724V16.968H99.2724ZM91.7364 17.976V19.576H107.024V17.976V16.376H91.7364V17.976ZM107.024 17.976H105.424V25.968H107.024H108.624V17.976H107.024ZM107.024 25.968V24.368H91.7364V25.968V27.568H107.024V25.968ZM91.7364 25.968H93.3364V17.976H91.7364H90.1364V25.968H91.7364ZM103.568 20.736V19.136H95.2164V20.736V22.336H103.568V20.736ZM95.2164 20.736H93.6164V23.208H95.2164H96.8164V20.736H95.2164ZM95.2164 23.208V24.808H103.568V23.208V21.608H95.2164V23.208ZM103.568 23.208H105.168V20.736H103.568H101.968V23.208H103.568ZM129.619 18.216L129.163 19.7497L129.176 19.7533L129.188 19.7567L129.619 18.216ZM132.403 19.68L133.521 18.5347V18.5347L132.403 19.68ZM132.403 24.24L133.521 25.3853V25.3853L132.403 24.24ZM129.619 25.704L129.188 24.1632L129.183 24.1648L129.619 25.704ZM121.195 25.704L120.759 27.2432L120.764 27.2447L121.195 25.704ZM118.435 24.24L117.318 25.3853V25.3853L118.435 24.24ZM118.435 19.68L117.318 18.5347L118.435 19.68ZM121.195 18.216L121.632 19.7553L121.646 19.7513L121.195 18.216ZM122.971 20.52L123.241 22.0972L123.256 22.0946L123.271 22.0917L122.971 20.52ZM121.483 21.048L122.413 22.35L121.483 21.048ZM121.483 22.872L120.553 24.174L120.574 24.189L120.596 24.2033L121.483 22.872ZM122.971 23.4L122.665 24.9704L122.687 24.9746L122.708 24.9782L122.971 23.4ZM127.867 23.4L128.137 24.9772L128.155 24.974L128.174 24.9704L127.867 23.4ZM129.355 22.872L130.243 24.2033L130.25 24.1987L130.257 24.194L129.355 22.872ZM129.355 21.048L128.425 22.35L128.44 22.3601L128.454 22.37L129.355 21.048ZM127.867 20.52L127.561 22.0904L127.58 22.094L127.598 22.0972L127.867 20.52ZM117.715 4.776V3.176H116.115V4.776H117.715ZM131.827 4.776H133.427V3.176H131.827V4.776ZM131.827 7.56V9.16H133.427V7.56H131.827ZM117.715 7.56H116.115V9.16H117.715V7.56ZM115.483 13.68V12.08H113.883V13.68H115.483ZM135.619 13.68H137.219V12.08H135.619V13.68ZM135.619 16.488V18.088H137.219V16.488H135.619ZM115.483 16.488H113.883V18.088H115.483V16.488ZM122.731 9.912V8.312H121.131V9.912H122.731ZM126.235 9.912H127.835V8.312H126.235V9.912ZM126.235 14.376V15.976H127.835V14.376H126.235ZM122.731 14.376H121.131V15.976H122.731V14.376ZM129.763 4.776V3.176H128.163V4.776H129.763ZM133.291 4.776H134.891V3.176H133.291V4.776ZM133.219 9.408L134.818 9.48659L134.818 9.48533L133.219 9.408ZM132.667 12.6L132.504 14.1916L133.848 14.3297L134.209 13.0282L132.667 12.6ZM129.163 12.24L127.618 11.8264L127.133 13.6398L129 13.8316L129.163 12.24ZM129.691 9.216L128.094 9.12885L129.691 9.216ZM125.419 17.688V19.288C126.926 19.288 128.165 19.4528 129.163 19.7497L129.619 18.216L130.075 16.6823C128.706 16.2752 127.145 16.088 125.419 16.088V17.688ZM129.619 18.216L129.188 19.7567C130.219 20.0453 130.879 20.4277 131.286 20.8253L132.403 19.68L133.521 18.5347C132.616 17.6523 131.42 17.0587 130.051 16.6753L129.619 18.216ZM132.403 19.68L131.286 20.8253C131.648 21.1781 131.787 21.5308 131.787 21.96H133.387H134.987C134.987 20.6292 134.471 19.4619 133.521 18.5347L132.403 19.68ZM133.387 21.96H131.787C131.787 22.3892 131.648 22.7419 131.286 23.0947L132.403 24.24L133.521 25.3853C134.471 24.4581 134.987 23.2908 134.987 21.96H133.387ZM132.403 24.24L131.286 23.0947C130.879 23.4923 130.219 23.8747 129.188 24.1633L129.619 25.704L130.051 27.2447C131.42 26.8613 132.616 26.2677 133.521 25.3853L132.403 24.24ZM129.619 25.704L129.183 24.1648C128.177 24.4501 126.931 24.608 125.419 24.608V26.208V27.808C127.14 27.808 128.694 27.6299 130.056 27.2432L129.619 25.704ZM125.419 26.208V24.608C123.909 24.608 122.652 24.4503 121.627 24.1633L121.195 25.704L120.764 27.2447C122.139 27.6297 123.698 27.808 125.419 27.808V26.208ZM121.195 25.704L121.632 24.1648C120.62 23.8775 119.964 23.496 119.553 23.0947L118.435 24.24L117.318 25.3853C118.219 26.264 119.403 26.8585 120.759 27.2432L121.195 25.704ZM118.435 24.24L119.553 23.0947C119.191 22.7419 119.051 22.3892 119.051 21.96H117.451H115.851C115.851 23.2908 116.368 24.4581 117.318 25.3853L118.435 24.24ZM117.451 21.96H119.051C119.051 21.5308 119.191 21.1781 119.553 20.8253L118.435 19.68L117.318 18.5347C116.368 19.4619 115.851 20.6292 115.851 21.96H117.451ZM118.435 19.68L119.553 20.8253C119.964 20.424 120.62 20.0425 121.632 19.7552L121.195 18.216L120.759 16.6768C119.403 17.0615 118.219 17.656 117.318 18.5347L118.435 19.68ZM121.195 18.216L121.646 19.7513C122.664 19.4526 123.914 19.288 125.419 19.288V17.688V16.088C123.693 16.088 122.127 16.2754 120.745 16.6807L121.195 18.216ZM125.419 20.328V18.728C124.396 18.728 123.473 18.7956 122.672 18.9483L122.971 20.52L123.271 22.0917C123.814 21.9884 124.523 21.928 125.419 21.928V20.328ZM122.971 20.52L122.702 18.9428C121.937 19.0734 121.17 19.3053 120.553 19.746L121.483 21.048L122.413 22.35C122.468 22.3107 122.694 22.1906 123.241 22.0972L122.971 20.52ZM121.483 21.048L120.553 19.746C119.856 20.2439 119.379 21.0063 119.379 21.96H120.979H122.579C122.579 22.03 122.561 22.1308 122.506 22.2299C122.455 22.3226 122.403 22.3572 122.413 22.35L121.483 21.048ZM120.979 21.96H119.379C119.379 22.9137 119.856 23.6761 120.553 24.174L121.483 22.872L122.413 21.57C122.403 21.5628 122.455 21.5974 122.506 21.6901C122.561 21.7892 122.579 21.89 122.579 21.96H120.979ZM121.483 22.872L120.596 24.2033C121.186 24.5968 121.92 24.825 122.665 24.9704L122.971 23.4L123.278 21.8296C122.711 21.719 122.453 21.5952 122.371 21.5407L121.483 22.872ZM122.971 23.4L122.708 24.9782C123.494 25.1092 124.404 25.168 125.419 25.168V23.568V21.968C124.515 21.968 123.792 21.9148 123.234 21.8218L122.971 23.4ZM125.419 23.568V25.168C126.448 25.168 127.361 25.1096 128.137 24.9772L127.867 23.4L127.598 21.8228C127.062 21.9144 126.343 21.968 125.419 21.968V23.568ZM127.867 23.4L128.174 24.9704C128.919 24.825 129.653 24.5968 130.243 24.2033L129.355 22.872L128.468 21.5407C128.386 21.5952 128.128 21.719 127.561 21.8296L127.867 23.4ZM129.355 22.872L130.257 24.194C130.966 23.7103 131.483 22.9468 131.483 21.96H129.883H128.283C128.283 21.8764 128.307 21.7658 128.367 21.6623C128.422 21.5674 128.474 21.5368 128.454 21.55L129.355 22.872ZM129.883 21.96H131.483C131.483 20.9732 130.966 20.2097 130.257 19.726L129.355 21.048L128.454 22.37C128.474 22.3832 128.422 22.3526 128.367 22.2577C128.307 22.1542 128.283 22.0436 128.283 21.96H129.883ZM129.355 21.048L130.285 19.746C129.668 19.3053 128.902 19.0734 128.137 18.9428L127.867 20.52L127.598 22.0972C128.145 22.1906 128.37 22.3107 128.425 22.35L129.355 21.048ZM127.867 20.52L128.174 18.9496C127.382 18.7952 126.456 18.728 125.419 18.728V20.328V21.928C126.335 21.928 127.04 21.9888 127.561 22.0904L127.867 20.52ZM117.715 4.776V6.376H131.827V4.776V3.176H117.715V4.776ZM131.827 4.776H130.227V7.56H131.827H133.427V4.776H131.827ZM131.827 7.56V5.96H117.715V7.56V9.16H131.827V7.56ZM117.715 7.56H119.315V4.776H117.715H116.115V7.56H117.715ZM115.483 13.68V15.28H135.619V13.68V12.08H115.483V13.68ZM135.619 13.68H134.019V16.488H135.619H137.219V13.68H135.619ZM135.619 16.488V14.888H115.483V16.488V18.088H135.619V16.488ZM115.483 16.488H117.083V13.68H115.483H113.883V16.488H115.483ZM122.731 9.912V11.512H126.235V9.912V8.312H122.731V9.912ZM126.235 9.912H124.635V14.376H126.235H127.835V9.912H126.235ZM126.235 14.376V12.776H122.731V14.376V15.976H126.235V14.376ZM122.731 14.376H124.331V9.912H122.731H121.131V14.376H122.731ZM129.763 4.776V6.376H133.291V4.776V3.176H129.763V4.776ZM133.291 4.776H131.691V6.6H133.291H134.891V4.776H133.291ZM133.291 6.6H131.691C131.691 7.45119 131.668 8.36122 131.621 9.33067L133.219 9.408L134.818 9.48533C134.867 8.47078 134.891 7.50881 134.891 6.6H133.291ZM133.219 9.408L131.621 9.3294C131.58 10.1643 131.421 11.1096 131.126 12.1718L132.667 12.6L134.209 13.0282C134.554 11.7864 134.763 10.6037 134.818 9.48659L133.219 9.408ZM132.667 12.6L132.831 11.0084L129.327 10.6484L129.163 12.24L129 13.8316L132.504 14.1916L132.667 12.6ZM129.163 12.24L130.709 12.6536C131.033 11.4439 131.233 10.323 131.289 9.30314L129.691 9.216L128.094 9.12885C128.053 9.86895 127.902 10.7641 127.618 11.8264L129.163 12.24ZM129.691 9.216L131.289 9.30314C131.339 8.3947 131.363 7.49364 131.363 6.6H129.763H128.163C128.163 7.43436 128.14 8.2773 128.094 9.12885L129.691 9.216ZM129.763 6.6H131.363V4.776H129.763H128.163V6.6H129.763ZM149.682 9.12V7.52H148.082V9.12H149.682ZM153.738 9.12H155.338V7.52H153.738V9.12ZM153.738 11.976V13.576H155.338V11.976H153.738ZM149.682 11.976H148.082V13.576H149.682V11.976ZM152.778 3.84V2.24H151.178V3.84H152.778ZM156.33 3.84H157.93V2.24H156.33V3.84ZM156.33 17.112V18.712H157.93V17.112H156.33ZM152.778 17.112H151.178V18.712H152.778V17.112ZM152.802 18.072L152.334 19.6022L152.344 19.6051L152.354 19.608L152.802 18.072ZM155.466 19.56L154.306 20.6627L154.313 20.6699L154.32 20.677L155.466 19.56ZM154.314 25.104L153.553 23.6963L153.546 23.7L154.314 25.104ZM143.034 25.104L142.266 26.508L143.034 25.104ZM141.906 19.56L143.051 20.677L143.058 20.6699L143.065 20.6627L141.906 19.56ZM144.57 18.072L145.018 19.608L145.024 19.606L145.031 19.6039L144.57 18.072ZM146.346 20.4L146.635 21.9735L146.651 21.9706L146.667 21.9674L146.346 20.4ZM144.954 20.928L143.994 19.648L143.978 19.6599L143.962 19.6722L144.954 20.928ZM144.954 22.848L143.923 24.0719L143.957 24.1009L143.994 24.128L144.954 22.848ZM146.346 23.4L146.016 24.9657L146.039 24.9706L146.063 24.9748L146.346 23.4ZM151.002 23.4L151.291 24.9735L151.307 24.9706L151.323 24.9674L151.002 23.4ZM152.394 22.848L153.385 24.1038L153.393 24.0974L152.394 22.848ZM152.394 20.928L151.402 22.1838L151.418 22.1961L151.434 22.208L152.394 20.928ZM151.002 20.4L150.672 21.9657L150.695 21.9706L150.719 21.9748L151.002 20.4ZM142.53 6.072V4.472H140.93V6.072H142.53ZM145.41 6.072H147.01V4.472H145.41V6.072ZM144.762 11.472L143.242 10.9716L144.762 11.472ZM142.722 14.952L143.89 16.0451L143.899 16.0357L142.722 14.952ZM139.122 17.16L137.773 18.0205L138.439 19.0654L139.618 18.6812L139.122 17.16ZM137.346 14.376L136.855 12.853L134.882 13.4886L135.997 15.2365L137.346 14.376ZM139.746 13.152L138.776 11.8793L138.768 11.885L138.761 11.8907L139.746 13.152ZM141.354 11.448L140.012 10.576L140.007 10.5845L141.354 11.448ZM142.242 9.456L140.698 9.03501L140.695 9.04721L140.691 9.05947L142.242 9.456ZM143.298 6.072V4.472H141.698V6.072H143.298ZM146.13 6.072H147.73V4.472H146.13V6.072ZM146.61 9.912L148.107 9.34711L146.61 9.912ZM148.194 12.216L147.101 13.3848L147.108 13.3913L147.115 13.3976L148.194 12.216ZM151.074 13.848L152.435 14.6885L153.479 12.9973L151.604 12.3385L151.074 13.848ZM149.37 16.608L148.879 18.1309L150.072 18.5154L150.731 17.4485L149.37 16.608ZM145.866 14.52L144.695 15.611L144.705 15.6213L144.715 15.6314L145.866 14.52ZM143.922 11.256L142.404 11.762L142.406 11.7679L143.922 11.256ZM138.282 5.112V3.512H136.682V5.112H138.282ZM150.33 5.112H151.93V3.512H150.33V5.112ZM150.33 7.896V9.496H151.93V7.896H150.33ZM138.282 7.896H136.682V9.496H138.282V7.896ZM149.682 9.12V10.72H153.738V9.12V7.52H149.682V9.12ZM153.738 9.12H152.138V11.976H153.738H155.338V9.12H153.738ZM153.738 11.976V10.376H149.682V11.976V13.576H153.738V11.976ZM149.682 11.976H151.282V9.12H149.682H148.082V11.976H149.682ZM152.778 3.84V5.44H156.33V3.84V2.24H152.778V3.84ZM156.33 3.84H154.73V17.112H156.33H157.93V3.84H156.33ZM156.33 17.112V15.512H152.778V17.112V18.712H156.33V17.112ZM152.778 17.112H154.378V3.84H152.778H151.178V17.112H152.778ZM148.674 17.544V19.144C150.164 19.144 151.374 19.3088 152.334 19.6022L152.802 18.072L153.269 16.5418C151.925 16.1312 150.383 15.944 148.674 15.944V17.544ZM152.802 18.072L152.354 19.608C153.32 19.8899 153.93 20.2675 154.306 20.6627L155.466 19.56L156.625 18.4573C155.753 17.5405 154.587 16.9261 153.25 16.536L152.802 18.072ZM155.466 19.56L154.32 20.677C154.646 21.0114 154.802 21.3839 154.802 21.888H156.402H158.002C158.002 20.5681 157.533 19.3886 156.611 18.443L155.466 19.56ZM156.402 21.888H154.802C154.802 22.6006 154.514 23.1773 153.553 23.6963L154.314 25.104L155.074 26.5117C156.897 25.5267 158.002 23.9594 158.002 21.888H156.402ZM154.314 25.104L153.546 23.7C152.497 24.2735 150.917 24.632 148.674 24.632V26.232V27.832C151.198 27.832 153.378 27.4385 155.081 26.508L154.314 25.104ZM148.674 26.232V24.632C146.43 24.632 144.85 24.2735 143.801 23.7L143.034 25.104L142.266 26.508C143.969 27.4385 146.149 27.832 148.674 27.832V26.232ZM143.034 25.104L143.801 23.7C142.859 23.1854 142.57 22.6101 142.57 21.888H140.97H139.37C139.37 23.9499 140.456 25.5186 142.266 26.508L143.034 25.104ZM140.97 21.888H142.57C142.57 21.3839 142.725 21.0114 143.051 20.677L141.906 19.56L140.76 18.443C139.838 19.3886 139.37 20.5681 139.37 21.888H140.97ZM141.906 19.56L143.065 20.6627C143.441 20.2675 144.051 19.8899 145.018 19.608L144.57 18.072L144.122 16.536C142.784 16.9261 141.618 17.5405 140.746 18.4573L141.906 19.56ZM144.57 18.072L145.031 19.6039C146.014 19.3078 147.22 19.144 148.674 19.144V17.544V15.944C146.991 15.944 145.461 16.1322 144.108 16.5401L144.57 18.072ZM148.674 20.208V18.608C147.682 18.608 146.79 18.6756 146.024 18.8326L146.346 20.4L146.667 21.9674C147.149 21.8684 147.809 21.808 148.674 21.808V20.208ZM146.346 20.4L146.056 18.8265C145.325 18.9612 144.59 19.2007 143.994 19.648L144.954 20.928L145.914 22.208C145.957 22.1753 146.151 22.0628 146.635 21.9735L146.346 20.4ZM144.954 20.928L143.962 19.6722C143.259 20.227 142.898 21.017 142.898 21.888H144.498H146.098C146.098 21.8947 146.095 21.9538 146.057 22.0345C146.018 22.1168 145.968 22.1659 145.945 22.1838L144.954 20.928ZM144.498 21.888H142.898C142.898 22.7626 143.272 23.5241 143.923 24.0719L144.954 22.848L145.984 21.6241C145.984 21.6237 145.994 21.6321 146.009 21.6509C146.024 21.6701 146.041 21.6965 146.057 21.7295C146.091 21.8016 146.098 21.8628 146.098 21.888H144.498ZM144.954 22.848L143.994 24.128C144.575 24.5641 145.293 24.8135 146.016 24.9657L146.346 23.4L146.675 21.8343C146.182 21.7305 145.972 21.6119 145.914 21.568L144.954 22.848ZM146.346 23.4L146.063 24.9748C146.812 25.1093 147.69 25.168 148.674 25.168V23.568V21.968C147.801 21.968 147.127 21.9147 146.628 21.8252L146.346 23.4ZM148.674 23.568V25.168C149.67 25.168 150.552 25.1098 151.291 24.9735L151.002 23.4L150.712 21.8265C150.235 21.9142 149.565 21.968 148.674 21.968V23.568ZM151.002 23.4L151.323 24.9674C152.053 24.8177 152.798 24.5674 153.385 24.1038L152.394 22.848L151.402 21.5922C151.403 21.5915 151.392 21.6006 151.362 21.6168C151.333 21.633 151.289 21.6543 151.228 21.6787C151.103 21.7283 150.924 21.7826 150.68 21.8326L151.002 23.4ZM152.394 22.848L153.393 24.0974C154.063 23.5612 154.474 22.7944 154.474 21.888H152.874H151.274C151.274 21.8502 151.283 21.7787 151.322 21.7005C151.36 21.6253 151.4 21.5942 151.394 21.5986L152.394 22.848ZM152.874 21.888H154.474C154.474 20.9844 154.076 20.1902 153.354 19.648L152.394 20.928L151.434 22.208C151.419 22.1967 151.366 22.1508 151.322 22.0635C151.279 21.9763 151.274 21.9068 151.274 21.888H152.874ZM152.394 20.928L153.385 19.6722C152.783 19.1969 152.021 18.9574 151.284 18.8252L151.002 20.4L150.719 21.9748C150.959 22.0179 151.132 22.0671 151.25 22.112C151.37 22.1575 151.409 22.1889 151.402 22.1838L152.394 20.928ZM151.002 20.4L151.331 18.8343C150.574 18.675 149.678 18.608 148.674 18.608V20.208V21.808C149.558 21.808 150.213 21.869 150.672 21.9657L151.002 20.4ZM142.53 6.072V7.672H145.41V6.072V4.472H142.53V6.072ZM145.41 6.072H143.81V7.368H145.41H147.01V6.072H145.41ZM145.41 7.368H143.81C143.81 8.62731 143.619 9.82605 143.242 10.9716L144.762 11.472L146.281 11.9724C146.768 10.494 147.01 8.95669 147.01 7.368H145.41ZM144.762 11.472L143.242 10.9716C142.881 12.0688 142.317 13.0295 141.544 13.8683L142.722 14.952L143.899 16.0357C144.982 14.8585 145.779 13.4992 146.281 11.9724L144.762 11.472ZM142.722 14.952L141.553 13.8589C140.834 14.6277 139.877 15.2307 138.626 15.6388L139.122 17.16L139.618 18.6812C141.31 18.1293 142.753 17.2603 143.89 16.0451L142.722 14.952ZM139.122 17.16L140.47 16.2995L138.694 13.5155L137.346 14.376L135.997 15.2365L137.773 18.0205L139.122 17.16ZM137.346 14.376L137.836 15.899C138.925 15.5482 139.901 15.0606 140.73 14.4133L139.746 13.152L138.761 11.8907C138.279 12.2674 137.654 12.5958 136.855 12.853L137.346 14.376ZM139.746 13.152L140.715 14.4247C141.515 13.815 142.187 13.1132 142.701 12.3115L141.354 11.448L140.007 10.5845C139.721 11.0308 139.32 11.465 138.776 11.8793L139.746 13.152ZM141.354 11.448L142.695 12.32C143.199 11.5449 143.569 10.7215 143.792 9.85253L142.242 9.456L140.691 9.05947C140.562 9.56648 140.34 10.0711 140.012 10.576L141.354 11.448ZM142.242 9.456L143.785 9.87699C144.012 9.04409 144.13 8.20657 144.13 7.368H142.53H140.93C140.93 7.90543 140.855 8.45991 140.698 9.03501L142.242 9.456ZM142.53 7.368H144.13V6.072H142.53H140.93V7.368H142.53ZM143.298 6.072V7.672H146.13V6.072V4.472H143.298V6.072ZM146.13 6.072H144.53V7.368H146.13H147.73V6.072H146.13ZM146.13 7.368H144.53C144.53 8.42191 144.729 9.46087 145.113 10.4769L146.61 9.912L148.107 9.34711C147.85 8.66713 147.73 8.01009 147.73 7.368H146.13ZM146.61 9.912L145.113 10.4769C145.529 11.5791 146.206 12.5481 147.101 13.3848L148.194 12.216L149.286 11.0472C148.709 10.5079 148.331 9.94085 148.107 9.34711L146.61 9.912ZM148.194 12.216L147.115 13.3976C148.045 14.247 149.207 14.888 150.543 15.3575L151.074 13.848L151.604 12.3385C150.572 11.976 149.814 11.529 149.272 11.0344L148.194 12.216ZM151.074 13.848L149.712 13.0075L148.008 15.7675L149.37 16.608L150.731 17.4485L152.435 14.6885L151.074 13.848ZM149.37 16.608L149.86 15.0851C148.628 14.6879 147.7 14.1169 147.017 13.4086L145.866 14.52L144.715 15.6314C145.823 16.7791 147.232 17.6001 148.879 18.1309L149.37 16.608ZM145.866 14.52L147.036 13.429C146.312 12.6526 145.781 11.7624 145.437 10.7441L143.922 11.256L142.406 11.7679C142.894 13.2136 143.659 14.4994 144.695 15.611L145.866 14.52ZM143.922 11.256L145.439 10.75C145.079 9.66873 144.898 8.54381 144.898 7.368H143.298H141.698C141.698 8.88019 141.932 10.3473 142.404 11.762L143.922 11.256ZM143.298 7.368H144.898V6.072H143.298H141.698V7.368H143.298ZM138.282 5.112V6.712H150.33V5.112V3.512H138.282V5.112ZM150.33 5.112H148.73V7.896H150.33H151.93V5.112H150.33ZM150.33 7.896V6.296H138.282V7.896V9.496H150.33V7.896ZM138.282 7.896H139.882V5.112H138.282H136.682V7.896H138.282ZM161.896 13.68V12.08H160.296V13.68H161.896ZM177.736 13.68H179.336V12.08H177.736V13.68ZM177.736 16.488V18.088H179.336V16.488H177.736ZM161.896 16.488H160.296V18.088H161.896V16.488ZM159.616 20.88V19.28H158.016V20.88H159.616ZM179.848 20.88H181.448V19.28H179.848V20.88ZM179.848 23.76V25.36H181.448V23.76H179.848ZM159.616 23.76H158.016V25.36H159.616V23.76ZM167.944 14.952V13.352H166.344V14.952H167.944ZM171.472 14.952H173.072V13.352H171.472V14.952ZM171.472 21.768V23.368H173.072V21.768H171.472ZM167.944 21.768H166.344V23.368H167.944V21.768ZM161.896 5.28V3.68H160.296V5.28H161.896ZM177.568 5.28H179.168V3.68H177.568V5.28ZM177.568 8.112V9.712H179.168V8.112H177.568ZM165.424 8.112V6.512H163.824V8.112H165.424ZM165.424 14.88V16.48H167.024V14.88H165.424ZM161.896 14.88H160.296V16.48H161.896V14.88ZM161.896 13.68V15.28H177.736V13.68V12.08H161.896V13.68ZM177.736 13.68H176.136V16.488H177.736H179.336V13.68H177.736ZM177.736 16.488V14.888H161.896V16.488V18.088H177.736V16.488ZM161.896 16.488H163.496V13.68H161.896H160.296V16.488H161.896ZM159.616 20.88V22.48H179.848V20.88V19.28H159.616V20.88ZM179.848 20.88H178.248V23.76H179.848H181.448V20.88H179.848ZM179.848 23.76V22.16H159.616V23.76V25.36H179.848V23.76ZM159.616 23.76H161.216V20.88H159.616H158.016V23.76H159.616ZM167.944 14.952V16.552H171.472V14.952V13.352H167.944V14.952ZM171.472 14.952H169.872V21.768H171.472H173.072V14.952H171.472ZM171.472 21.768V20.168H167.944V21.768V23.368H171.472V21.768ZM167.944 21.768H169.544V14.952H167.944H166.344V21.768H167.944ZM161.896 5.28V6.88H177.568V5.28V3.68H161.896V5.28ZM177.568 5.28H175.968V8.112H177.568H179.168V5.28H177.568ZM177.568 8.112V6.512H165.424V8.112V9.712H177.568V8.112ZM165.424 8.112H163.824V14.88H165.424H167.024V8.112H165.424ZM165.424 14.88V13.28H161.896V14.88V16.48H165.424V14.88ZM161.896 14.88H163.496V5.28H161.896H160.296V14.88H161.896Z" fill="white" mask="url(#path-1-outside-1_334_1663)"/>
</g>
<defs>
<filter id="filter0_ddd_334_1663" x="0.536011" y="0.191998" width="186.912" height="33.664" filterUnits="userSpaceOnUse" color-interpolation-filters="sRGB">
<feFlood flood-opacity="0" result="BackgroundImageFix"/>
<feColorMatrix in="SourceAlpha" type="matrix" values="0 0 0 0 0 0 0 0 0 0 0 0 0 0 0 0 0 0 127 0" result="hardAlpha"/>
<feOffset dx="1" dy="1"/>
<feComposite in2="hardAlpha" operator="out"/>
<feColorMatrix type="matrix" values="0 0 0 0 0.87451 0 0 0 0 0.87451 0 0 0 0 0.87451 0 0 0 1 0"/>
<feBlend mode="normal" in2="BackgroundImageFix" result="effect1_dropShadow_334_1663"/>
<feColorMatrix in="SourceAlpha" type="matrix" values="0 0 0 0 0 0 0 0 0 0 0 0 0 0 0 0 0 0 127 0" result="hardAlpha"/>
<feOffset dx="1" dy="1"/>
<feComposite in2="hardAlpha" operator="out"/>
<feColorMatrix type="matrix" values="0 0 0 0 0.875 0 0 0 0 0.875 0 0 0 0 0.875 0 0 0 1 0"/>
<feBlend mode="normal" in2="effect1_dropShadow_334_1663" result="effect2_dropShadow_334_1663"/>
<feColorMatrix in="SourceAlpha" type="matrix" values="0 0 0 0 0 0 0 0 0 0 0 0 0 0 0 0 0 0 127 0" result="hardAlpha"/>
<feOffset dx="2" dy="2"/>
<feGaussianBlur stdDeviation="2"/>
<feComposite in2="hardAlpha" operator="out"/>
<feColorMatrix type="matrix" values="0 0 0 0 0 0 0 0 0 0 0 0 0 0 0 0 0 0 0.1 0"/>
<feBlend mode="normal" in2="effect2_dropShadow_334_1663" result="effect3_dropShadow_334_1663"/>
<feBlend mode="normal" in="SourceGraphic" in2="effect3_dropShadow_334_1663" result="shape"/>
</filter>
<linearGradient id="paint0_linear_334_1663" x1="91.5" y1="-4" x2="91.5" y2="31" gradientUnits="userSpaceOnUse">
<stop stop-color="#52536D"/>
<stop offset="1" stop-color="#27274C"/>
</linearGradient>
</defs>
</svg>
