<svg width="54" height="53" viewBox="0 0 54 53" fill="none" xmlns="http://www.w3.org/2000/svg">
<mask id="path-1-inside-1_303_1634" fill="white">
<path d="M51 50H3V0H51V50ZM6 3V47H48V3H6Z"/>
</mask>
<path d="M51 50H3V0H51V50ZM6 3V47H48V3H6Z" fill="url(#paint0_linear_303_1634)"/>
<path d="M51 50V50.75H51.75V50H51ZM3 50H2.25V50.75H3V50ZM3 0V-0.75H2.25V0H3ZM51 0H51.75V-0.75H51V0ZM6 3V2.25H5.25V3H6ZM6 47H5.25V47.75H6V47ZM48 47V47.75H48.75V47H48ZM48 3H48.75V2.25H48V3ZM51 50V49.25H3V50V50.75H51V50ZM3 50H3.75V0H3H2.25V50H3ZM3 0V0.75H51V0V-0.75H3V0ZM51 0H50.25V50H51H51.75V0H51ZM6 3H5.25V47H6H6.75V3H6ZM6 47V47.75H48V47V46.25H6V47ZM48 47H48.75V3H48H47.25V47H48ZM48 3V2.25H6V3V3.75H48V3Z" fill="#525252" mask="url(#path-1-inside-1_303_1634)"/>
<rect x="0.375" y="-0.375" width="53.25" height="3.25" transform="matrix(1 0 0 -1 0 52.25)" fill="url(#paint1_linear_303_1634)" stroke="#525252" stroke-width="0.75"/>
<defs>
<linearGradient id="paint0_linear_303_1634" x1="6.14562" y1="3.75" x2="55.6303" y2="37.6129" gradientUnits="userSpaceOnUse">
<stop stop-color="#CDCDCD"/>
<stop offset="1" stop-color="#979797"/>
</linearGradient>
<linearGradient id="paint1_linear_303_1634" x1="3.61268" y1="0.3" x2="4.46844" y2="8.70698" gradientUnits="userSpaceOnUse">
<stop stop-color="#CDCDCD"/>
<stop offset="1" stop-color="#979797"/>
</linearGradient>
</defs>
</svg>
